<?xml version="1.0" encoding="UTF-8" standalone="no"?>
<!-- Created with Inkscape (http://www.inkscape.org/) -->

<svg
   width="250"
   height="150"
   viewBox="0 0 66.145832 39.6875"
   version="1.1"
   id="svg1"
   xml:space="preserve"
   inkscape:version="1.3.1 (91b66b0783, 2023-11-16)"
   sodipodi:docname="EzzySoftLogo.svg"
   xmlns:inkscape="http://www.inkscape.org/namespaces/inkscape"
   xmlns:sodipodi="http://sodipodi.sourceforge.net/DTD/sodipodi-0.dtd"
   xmlns="http://www.w3.org/2000/svg"
   xmlns:svg="http://www.w3.org/2000/svg"><sodipodi:namedview
     id="namedview1"
     pagecolor="#ffffff"
     bordercolor="#000000"
     borderopacity="0.25"
     inkscape:showpageshadow="2"
     inkscape:pageopacity="0.0"
     inkscape:pagecheckerboard="0"
     inkscape:deskcolor="#d1d1d1"
     inkscape:document-units="mm"
     inkscape:zoom="2.8501372"
     inkscape:cx="157.88714"
     inkscape:cy="21.577909"
     inkscape:window-width="2256"
     inkscape:window-height="1398"
     inkscape:window-x="-11"
     inkscape:window-y="-11"
     inkscape:window-maximized="1"
     inkscape:current-layer="layer1" /><defs
     id="defs1"><rect
       x="220.9164"
       y="240.74223"
       width="83.551712"
       height="124.61951"
       id="rect3" /></defs><g
     inkscape:label="Layer 1"
     inkscape:groupmode="layer"
     id="layer1"><ellipse
       style="fill:#ffffff;fill-rule:evenodd;stroke:#ffffff;stroke-width:0.549545;stroke-opacity:1;fill-opacity:1"
       id="path1"
       cx="32.955284"
       cy="19.912418"
       rx="31.551535"
       ry="17.116192" /><text
       xml:space="preserve"
       transform="scale(0.26458333)"
       id="text3"
       style="font-style:normal;font-variant:normal;font-weight:normal;font-stretch:normal;font-size:46.6667px;font-family:'Headline R';-inkscape-font-specification:'Headline R';white-space:pre;shape-inside:url(#rect3);display:inline;fill:#211b94;fill-opacity:1;fill-rule:evenodd;stroke:#000000;stroke-width:1.00157" /><g
       id="g1"
       transform="translate(1.4853086,5.2914121)"><path
         style="fill:#000000;fill-opacity:1;stroke-width:0.347632"
         d="M 7.4007354,16.853503 C 0.99561603,14.871968 1.7192494,5.3313275 8.3280744,4.6271058 8.8861538,4.5676394 8.951999,4.537383 9.1058415,4.2697261 11.448023,0.19481824 17.809836,-0.28106436 20.878027,3.3891311 21.532686,4.1722385 21.488996,4.20587 20.683322,3.5390037 17.110105,0.58140789 11.458444,1.8499701 10.021237,5.9322026 9.9061893,6.2589735 9.9019084,6.2611015 9.3564486,6.262472 c -4.6649835,0.011697 -6.2130536,6.258475 -2.07192,8.360592 2.2088415,1.121248 4.8325874,0.278656 8.1935054,-2.631269 1.911944,-1.655384 3.336278,-2.6371977 4.51512,-3.1123404 0.541741,-0.2183511 0.614478,-0.1470049 0.181513,0.1780539 -0.727615,0.5462741 -1.546111,1.3725785 -2.816229,2.8431125 -3.953641,4.577485 -6.721331,5.954111 -9.9577026,4.952882 z M 22.511639,16.132159 c -0.675868,-0.140526 -1.690302,-0.676569 -2.190144,-1.157303 -0.441787,-0.4249 -0.441787,-0.4249 0.01201,-0.201102 4.901345,2.417283 9.648487,-3.419086 5.906826,-7.2621356 C 23.767199,4.9714817 20.558635,5.8154471 14.888129,10.497649 12.146033,12.761825 11.018952,13.428085 9.8057852,13.502004 9.1704896,13.540712 9.1704896,13.540712 9.6362395,13.367921 10.72495,12.964016 11.507646,12.26121 14.576685,8.9317514 18.45334,4.7261507 22.566432,3.1788725 25.778872,4.7176776 31.988526,7.6921949 29.176087,17.517829 22.511649,16.132159 Z"
         id="path4" /><path
         style="fill:#ffc300;fill-opacity:1;stroke:#ffc300;stroke-width:0.0919774px;stroke-linecap:butt;stroke-linejoin:miter;stroke-opacity:1"
         d="m 7.9635415,6.9860108 c 0,0 -0.8852133,0.3396972 -1.2383923,0.647535 C 6.2278384,8.0670103 5.8165217,8.634039 5.5655647,9.2523887 5.3419494,9.8033661 5.2680124,10.425281 5.2953714,11.021552 c 0.017871,0.389394 0.1402899,0.771329 0.281451,1.13319 0.1281095,0.328406 0.2974905,0.643935 0.5066168,0.925053 0.2271655,0.305368 0.491157,0.591472 0.7993256,0.809422 0.2309867,0.163362 0.5146056,0.337196 0.7768067,0.439401 0.3229559,0.125884 0.6384616,0.174573 0.9794567,0.231263 0.9311568,0.154798 1.9864368,-0.101909 2.0489898,-0.393164 0,0 -0.397363,0.06456 -0.596679,0.07227 -0.2887541,0.01117 -0.5816482,0.02153 -0.8668759,-0.026 -0.2459901,-0.041 -0.4813537,-0.139276 -0.70926,-0.242826 C 8.1925318,13.823557 7.8707078,13.660536 7.5920386,13.438257 7.3299919,13.229235 7.1085273,12.967585 6.9052941,12.698216 6.7400944,12.479258 6.5952767,12.242055 6.4774851,11.992863 6.3328355,11.68685 6.1992858,11.367745 6.1397418,11.033118 6.09386,10.775262 6.0481463,10.508624 6.0609408,10.246826 6.0756905,9.9445684 6.1541141,9.6373718 6.2298142,9.3448982 6.2959099,9.0895828 6.4093965,8.8476586 6.5337843,8.6164165 6.655102,8.3908818 6.8079085,8.184104 6.9615898,7.9804443 7.0984838,7.7990328 7.2405025,7.6201722 7.4006565,7.4601037 7.5745551,7.2862986 7.9635415,6.9860284 7.9635415,6.9860284 Z"
         id="path5"
         sodipodi:nodetypes="csssssssscssssssssssssc" /><path
         style="fill:#ffc300;fill-opacity:1;stroke:#ffc300;stroke-width:0.0919774px;stroke-linecap:butt;stroke-linejoin:miter;stroke-opacity:1"
         d="m 20.884178,7.3261766 c 0,0 0.792026,-0.5294161 1.242954,-0.6382517 0.634953,-0.1532513 1.323399,-0.1560979 1.956739,0.00402 0.564339,0.1426749 1.095286,0.4511504 1.545957,0.8280691 0.294311,0.2461484 0.520653,0.5742335 0.720141,0.9058698 0.181043,0.3009749 0.327477,0.6283941 0.423349,0.9682005 0.104143,0.3691151 0.171313,0.7572097 0.158868,1.1412947 -0.0093,0.28789 -0.04174,0.625483 -0.117507,0.902815 -0.09333,0.341596 -0.242683,0.631166 -0.400916,0.946547 -0.432094,0.861211 -1.260184,1.580431 -1.525431,1.459035 0,0 0.286675,-0.289894 0.411155,-0.44997 0.180313,-0.231911 0.362482,-0.467702 0.494742,-0.731578 0.114049,-0.227582 0.176961,-0.480407 0.231302,-0.730208 0.07693,-0.353674 0.140506,-0.716405 0.132037,-1.078696 -0.008,-0.340677 -0.08126,-0.679109 -0.171436,-1.0070641 C 25.912837,9.5796811 25.813139,9.319095 25.687993,9.0737112 25.534315,8.7723805 25.363785,8.4724345 25.137128,8.2244012 24.962471,8.0332802 24.780834,7.8370717 24.568223,7.6920751 24.322764,7.5246504 24.035605,7.4068943 23.761587,7.2956348 23.522379,7.1985241 23.265498,7.1485208 23.0105,7.1138676 c -0.2487,-0.033786 -0.501424,-0.03044 -0.75223,-0.024485 -0.223402,0.00528 -0.447858,0.016312 -0.668372,0.053512 -0.239439,0.040375 -0.70572,0.1832892 -0.70572,0.1832892 z"
         id="path5-0"
         sodipodi:nodetypes="csssssssscssssssssssssc" /></g><text
       xml:space="preserve"
       style="font-style:normal;font-variant:normal;font-weight:normal;font-stretch:normal;font-size:11.6417px;font-family:'Headline R';-inkscape-font-specification:'Headline R';fill:#000000;fill-opacity:1;fill-rule:evenodd;stroke:#000000;stroke-width:0.0905198"
       x="37.029987"
       y="16.441319"
       id="text6"
       transform="scale(0.83521919,1.1972905)"><tspan
         sodipodi:role="line"
         id="tspan6"
         style="font-size:11.6417px;fill:#000000;stroke:#000000;stroke-width:0.0905204"
         x="37.029987"
         y="16.441319">eZZy</tspan></text><text
       xml:space="preserve"
       style="font-size:5.87096px;font-family:'Headline R';-inkscape-font-specification:'Headline R';fill:#000000;fill-rule:evenodd;stroke:#000000;stroke-width:0.265768"
       x="4.9091654"
       y="29.542793"
       id="text1"
       transform="scale(1.0848242,0.92180835)"><tspan
         sodipodi:role="line"
         id="tspan1"
         style="stroke:#000000;stroke-width:0.265768"
         x="4.9091654"
         y="29.542793">Soft Solutions</tspan></text></g></svg>
