<?xml version="1.0" encoding="utf-8"?>
<svg xmlns="http://www.w3.org/2000/svg" width="300px" height="147px">
<path fill="#1B3164" d="M33.26,85.64c3.64-4.13,10.87-6.9,17.04-6.66c13.59,0.52,22.1,8.05,22.1,22.81c0,28.26-16.76,44.16-41.71,44.16c-9.76,0-20.98-2.11-29.69-5.44l14.51-81.85c1.14-6.68,3.77-9.31,11.96-9.31c5.04,0,9.6,0.01,12.17,0.01L33.26,85.64z M25.89,127.88c2.24,0.64,2.78,0.65,5.68,0.65c10.33,0,17.51-9.84,17.51-23.59c0-6.31-2.94-8.69-7.97-8.69c-4.41,0-9.9,3.92-10.66,5.55L25.89,127.88z M144.53,142.71c0.73,1.6,2.64,3.3,6.97,3.26c4.95,0,10.53-0.78,16.61-0.78c9.52,0,12.87,0.62,25.26,0.81c4.88,0.08,7.47-1.66,8.58-6.82c0.66-3.02,1.33-6.56,2.05-11.57c-5.02,0.48-9.9,0.17-14-0.09c-5.78-0.37-11.9-0.71-16.74-0.33c2.2-3.4,5.81-7.9,11.86-13.59c2.86-2.69,8.01-7.01,13.47-12.98c5.46-5.96,11.8-12.88,9.87-21.71c-6.06,0.4-10.35,0.6-18.37,0.6c-9.87,0-22.2-0.58-28.78-0.58c-5.61,0-8.27,1.85-9.31,6.37c-0.89,3.86-2.44,12.23-2.44,12.23c0.97-0.28,5.37-0.54,9.11-0.52c3.74,0.01,13.77,0.27,15.9,0.56c-0.91,2.82-9.81,9.42-15.37,15.59c-3.48,3.86-9.29,10.47-12.24,15.43c-7.7,4.09-12.07,2.86-11.37-3.09l3.17-17.82c0.33-3.42,1.25-7.11,1.07-10.41c-0.64-11.58-8.05-18.69-20.81-18.69c-6.96,0-12.02,3.55-15.82,6.82c0,0-0.97-5.38-8.16-5.74c0.05,0-12.39-0.03-12.39-0.03l-10.03,56.88c-1.39,7.44,1.23,8.5,7.84,8.5c0.05,0,12.63,0.03,12.63,0.03l7.64-42.68c0.94-2.05,5.4-6.44,10.98-6.44c3.6,0,6.73,1.76,5.97,6.42c-0.23,1.45-3.89,22.98-3.89,22.98c-1.01,7.39,1.52,13.29,4.01,15.53c3.29,3.42,7.94,4.95,12.6,5.14C135.82,146.21,141.64,144.97,144.53,142.71"/>
<path fill="#E3A417" d="M258.36,0.98c1.6,10.31,1.6,10.3,1.6,10.31c0.16,0.99,1,1.68,2.01,1.68h10.85c-9.84,6.38-9.83,6.37-9.84,6.38c-0.95,0.61-1.5,1.74-1.35,2.7c0.01,0.02,1.61,10.33,1.61,10.33l-0.02-0.01c-7.69-6.37-7.67-6.37-7.69-6.37c-0.73-0.61-1.92-0.6-2.83-0.01c-0.02,0.01-9.86,6.38-9.86,6.38c5.08-10.31,5.08-10.3,5.08-10.31c0.49-0.99,0.31-2.12-0.4-2.72c-0.01-0.01-7.7-6.39-7.7-6.39h0.01h10.83c1.04,0,2.12-0.7,2.59-1.66C253.27,11.29,258.36,0.98,258.36,0.98 M224.63,22.36c0,0-5.09,10.31-5.1,10.33c-0.47,0.96-1.55,1.66-2.59,1.66h-10.83h-0.02c0,0,7.69,6.37,7.7,6.39c0.72,0.6,0.9,1.72,0.4,2.71c0,0.02,0,0-5.08,10.32c0,0,9.84-6.38,9.86-6.39c0.91-0.6,2.11-0.6,2.84,0.01c0.01,0.01,0,0,7.69,6.38h0.01c0,0-1.61-10.31-1.61-10.33c-0.15-0.96,0.4-2.09,1.35-2.7c0.01-0.01,0,0,9.84-6.38h-10.85c-1.01,0-1.85-0.69-2.01-1.68C226.23,32.66,226.23,32.67,224.63,22.36 M284.53,22.36c0,0-5.09,10.31-5.1,10.33c-0.47,0.96-1.55,1.66-2.59,1.66h-10.83H266c0,0,7.68,6.37,7.7,6.39c0.72,0.6,0.9,1.72,0.4,2.71c0,0.02,0,0-5.09,10.32c0,0,9.84-6.38,9.86-6.39c0.91-0.6,2.11-0.6,2.84,0.01c0.01,0.01,0,0,7.68,6.38h0.02c0,0-1.6-10.31-1.61-10.33c-0.15-0.96,0.4-2.09,1.35-2.7c0.01-0.01,0,0,9.84-6.38h-10.85c-1.01,0-1.85-0.69-2.01-1.68C286.14,32.66,286.14,32.67,284.53,22.36 M245.98,66.76c0,0-5.09,10.31-5.1,10.33c-0.47,0.96-1.55,1.66-2.59,1.66h-10.83l-0.02-0.01c0,0,7.69,6.38,7.7,6.39c0.72,0.6,0.9,1.72,0.41,2.71c-0.01,0.02,0,0-5.09,10.32c0,0,9.84-6.38,9.86-6.39c0.92-0.59,2.11-0.6,2.85,0.01c0.01,0.01,0,0,7.68,6.38h0.02c0,0-1.6-10.31-1.61-10.33c-0.15-0.96,0.4-2.09,1.35-2.7c0.01-0.01,0,0,9.84-6.38h-10.85c-1.01,0-1.85-0.69-2.01-1.68C247.58,77.06,247.58,77.07,245.98,66.76"/></svg>