<?xml version="1.0" encoding="UTF-8" standalone="no"?>
<svg
   enable-background="new 1500.799 0 1998.402 1000"
   height="223.718685"
   viewBox="1500.799 0 1998.402 1000"
   width="446.989933"
   version="1.1"
   id="svg68"
   sodipodi:docname="New_Zealand_Qualifications_Authority_-_Logo_(2022).svg"
   inkscape:version="1.3.1 (91b66b0783, 2023-11-16)"
   xmlns:inkscape="http://www.inkscape.org/namespaces/inkscape"
   xmlns:sodipodi="http://sodipodi.sourceforge.net/DTD/sodipodi-0.dtd"
   xmlns="http://www.w3.org/2000/svg"
   xmlns:svg="http://www.w3.org/2000/svg">
  <defs
     id="defs68" />
  <sodipodi:namedview
     id="namedview68"
     pagecolor="#ffffff"
     bordercolor="#000000"
     borderopacity="0.25"
     inkscape:showpageshadow="2"
     inkscape:pageopacity="0.0"
     inkscape:pagecheckerboard="0"
     inkscape:deskcolor="#d1d1d1"
     inkscape:zoom="1.4161393"
     inkscape:cx="344.59887"
     inkscape:cy="-30.717317"
     inkscape:window-width="2256"
     inkscape:window-height="1398"
     inkscape:window-x="-11"
     inkscape:window-y="-11"
     inkscape:window-maximized="1"
     inkscape:current-layer="svg68" />
  <path
     d="m1542.333 797.861-28.378-63.848h-13.156v82.134h13.623v-51.425l23.314 51.425h8.96l23.414-51.692v51.692h13.622v-82.134h-13.022z"
     fill="#232b2d"
     id="path1"
     style="stroke:#000000;stroke-opacity:1;fill:#ffffff;fill-opacity:1" />
  <path
     d="m1643.785 767.12c-1.399-2.932-3.564-5.396-6.495-7.295-3.764-2.431-8.127-3.663-13.089-3.663-4.963 0-9.626 1.232-13.523 3.663-3.896 2.432-6.928 5.929-9.092 10.492-2.166 4.529-3.265 9.991-3.265 16.354 0 6.361 1.099 11.857 3.265 16.42 2.164 4.597 5.195 8.094 9.092 10.559 3.897 2.431 8.394 3.663 13.523 3.663 4.829 0 9.125-1.198 12.922-3.597 2.731-1.732 4.797-3.897 6.195-6.495l.1 8.927h14.455v-44.165c0-2.398.101-4.863.301-7.327.199-2.498.399-4.93.633-7.328h-13.989zm-4.463 34.172c-2.798 3.231-6.495 4.83-11.059 4.83-4.563 0-8.359-1.599-11.124-4.83-2.765-3.23-4.13-8.093-4.13-14.621s1.398-11.391 4.196-14.556c2.798-3.197 6.495-4.763 11.058-4.763s8.261 1.599 11.059 4.763c2.797 3.198 4.196 8.027 4.196 14.556s-1.399 11.391-4.196 14.621z"
     fill="#232b2d"
     id="path2"
     style="stroke:#000000;stroke-opacity:1;fill:#ffffff;fill-opacity:1" />
  <path
     d="m1708.167 756.129c-4.829 0-9.06 1.099-12.69 3.33-3.03 1.832-5.262 4.463-7.061 7.594l-.966-9.759h-14.089c.3 2.398.533 4.863.699 7.328.167 2.498.233 4.929.233 7.327v44.165h14.555v-33.207c0-4.663 1.333-8.394 3.964-11.191s6.229-4.196 10.725-4.196c3.664 0 6.395 1.032 8.227 3.098 1.832 2.064 2.731 5.462 2.731 10.191v35.306h14.555v-36.005c0-8.227-1.731-14.289-5.229-18.186-3.496-3.896-8.692-5.829-15.62-5.829z"
     fill="#232b2d"
     id="path3"
     style="stroke:#000000;stroke-opacity:1;fill:#ffffff;fill-opacity:1" />
  <path
     d="m1787.437 767.12c-1.398-2.932-3.563-5.396-6.495-7.295-3.764-2.431-8.127-3.663-13.089-3.663-4.963 0-9.626 1.232-13.522 3.663-3.897 2.432-6.928 5.929-9.093 10.492-2.165 4.529-3.265 9.991-3.265 16.354 0 6.361 1.1 11.857 3.265 16.42 2.165 4.597 5.195 8.094 9.093 10.559 3.896 2.431 8.393 3.663 13.522 3.663 4.829 0 9.126-1.198 12.923-3.597 2.731-1.732 4.796-3.897 6.195-6.495l.1 8.927h14.455v-44.165c0-2.398.1-4.863.3-7.327.2-2.498.399-4.93.633-7.328h-13.989zm-4.463 34.172c-2.798 3.231-6.495 4.83-11.058 4.83s-8.36-1.599-11.125-4.83c-2.764-3.23-4.13-8.093-4.13-14.621s1.399-11.391 4.196-14.556c2.799-3.197 6.495-4.763 11.059-4.763 4.563 0 8.26 1.599 11.058 4.763 2.798 3.198 4.196 8.027 4.196 14.556s-1.399 11.391-4.196 14.621z"
     fill="#232b2d"
     id="path4"
     style="stroke:#000000;stroke-opacity:1;fill:#ffffff;fill-opacity:1" />
  <path
     d="m1913.103 734.013h-69.312v12.356h27.146v69.778h15.021v-69.778h27.145z"
     fill="#232b2d"
     id="path5"
     style="stroke:#000000;stroke-opacity:1;fill:#ffffff;fill-opacity:1" />
  <path
     d="m1956.401 759.858c-4.463-2.498-9.726-3.729-15.787-3.729s-11.291 1.231-15.721 3.729-7.86 5.995-10.325 10.525c-2.432 4.529-3.664 9.959-3.664 16.254s1.232 11.724 3.664 16.32c2.432 4.563 5.896 8.127 10.325 10.591 4.43 2.498 9.659 3.73 15.721 3.73s11.324-1.232 15.787-3.73 7.927-6.028 10.358-10.591c2.432-4.597 3.664-10.025 3.664-16.32s-1.232-11.725-3.664-16.254c-2.431-4.529-5.895-8.06-10.358-10.525zm-4.829 41.401c-2.731 3.231-6.361 4.83-10.958 4.83s-8.227-1.599-10.958-4.83c-2.731-3.23-4.063-8.093-4.063-14.621s1.366-11.392 4.063-14.556 6.361-4.763 10.958-4.763 8.227 1.599 10.958 4.763c2.73 3.198 4.063 8.027 4.063 14.556.001 6.527-1.365 11.39-4.063 14.621z"
     fill="#232b2d"
     id="path6"
     style="stroke:#000000;stroke-opacity:1;fill:#ffffff;fill-opacity:1" />
  <path
     d="m2017.619 756.129c-4.83 0-9.093 1.099-12.823 3.33-2.831 1.665-4.929 4.13-6.628 6.961v-36.037h-14.555v85.765h14.555v-33.44c0-4.596 1.332-8.26 4.03-10.991 2.665-2.765 6.229-4.13 10.658-4.13 3.797 0 6.595 1.032 8.327 3.098 1.731 2.064 2.631 5.396 2.631 9.959v35.538h14.555v-36.238c0-7.993-1.699-13.955-5.129-17.886-3.431-3.93-8.627-5.895-15.621-5.895z"
     fill="#232b2d"
     id="path7"
     style="stroke:#000000;stroke-opacity:1;fill:#ffffff;fill-opacity:1" />
  <path
     d="m2093.459 790.501c0 4.563-1.299 8.26-3.897 11.058s-5.962 4.197-10.092 4.197c-3.663 0-6.361-1.033-8.16-3.098-1.798-2.065-2.665-5.263-2.665-9.626v-35.771h-14.555v35.871c0 8.16 1.799 14.223 5.363 18.186 3.563 3.964 8.959 5.929 16.187 5.929 4.563 0 8.593-1.132 12.057-3.431 2.599-1.731 4.497-4.13 6.129-6.895v9.193h14.222v-58.82h-14.555v33.207z"
     fill="#232b2d"
     id="path8"
     style="stroke:#000000;stroke-opacity:1;fill:#ffffff;fill-opacity:1" />
  <path
     d="m2199.773 797.861-28.377-63.848h-13.156v82.134h13.622v-51.425l23.316 51.425h8.959l23.414-51.692v51.692h13.623v-82.134h-13.024z"
     fill="#232b2d"
     id="path9"
     style="stroke:#000000;stroke-opacity:1;fill:#ffffff;fill-opacity:1" />
  <path
     d="m2268.086 735.745h36.804v8.626h-36.804z"
     fill="#232b2d"
     id="path10"
     style="stroke:#000000;stroke-opacity:1;fill:#ffffff;fill-opacity:1" />
  <path
     d="m2301.226 767.12c-1.399-2.932-3.563-5.396-6.495-7.295-3.764-2.431-8.127-3.663-13.089-3.663-4.963 0-9.626 1.232-13.522 3.663-3.896 2.432-6.928 5.929-9.093 10.492-2.165 4.529-3.265 9.991-3.265 16.354 0 6.361 1.1 11.857 3.265 16.42 2.165 4.597 5.196 8.094 9.093 10.559 3.896 2.431 8.393 3.663 13.522 3.663 4.829 0 9.126-1.198 12.923-3.597 2.73-1.732 4.796-3.897 6.195-6.495l.1 8.927h14.455v-44.165c0-2.398.1-4.863.3-7.327.2-2.498.399-4.93.633-7.328h-13.989zm-4.463 34.172c-2.798 3.231-6.495 4.83-11.058 4.83s-8.36-1.599-11.125-4.83c-2.764-3.23-4.13-8.093-4.13-14.621s1.399-11.391 4.196-14.556c2.799-3.197 6.495-4.763 11.059-4.763 4.563 0 8.293 1.599 11.058 4.763 2.798 3.198 4.196 8.027 4.196 14.556s-1.398 11.391-4.196 14.621z"
     fill="#232b2d"
     id="path11"
     style="stroke:#000000;stroke-opacity:1;fill:#ffffff;fill-opacity:1" />
  <path
     d="m2350.22 738.543-14.555 3.729v15.021h-11.291v10.958h11.291v27.145c0 7.295 1.798 12.79 5.362 16.421 3.563 3.663 8.859 5.462 15.854 5.462 1.466 0 2.998-.133 4.597-.399s3.064-.666 4.363-1.232v-11.524c-.999.4-2.032.7-3.098.933-1.032.233-2.298.333-3.797.333-2.731 0-4.862-.832-6.396-2.431-1.564-1.633-2.331-4.464-2.331-8.493v-26.213h15.721v-10.958h-15.721v-18.752z"
     fill="#232b2d"
     id="path12"
     style="stroke:#000000;stroke-opacity:1;fill:#ffffff;fill-opacity:1" />
  <path
     d="m2418.766 767.12c-1.399-2.932-3.564-5.396-6.496-7.295-3.764-2.431-8.127-3.663-13.089-3.663-4.963 0-9.626 1.232-13.522 3.663-3.896 2.432-6.928 5.929-9.093 10.492-2.165 4.529-3.265 9.991-3.265 16.354 0 6.361 1.1 11.857 3.265 16.42 2.165 4.597 5.196 8.094 9.093 10.559 3.896 2.431 8.393 3.663 13.522 3.663 4.829 0 9.126-1.198 12.923-3.597 2.731-1.732 4.797-3.897 6.195-6.495l.1 8.927h14.455v-44.165c0-2.398.1-4.863.3-7.327.2-2.498.399-4.93.633-7.328h-13.989zm-4.464 34.172c-2.798 3.231-6.495 4.83-11.058 4.83s-8.36-1.599-11.125-4.83c-2.764-3.23-4.129-8.093-4.129-14.621s1.398-11.391 4.196-14.556c2.798-3.197 6.495-4.763 11.058-4.763s8.293 1.599 11.058 4.763c2.765 3.165 4.196 8.027 4.196 14.556s-1.398 11.391-4.196 14.621z"
     fill="#232b2d"
     id="path13"
     style="stroke:#000000;stroke-opacity:1;fill:#ffffff;fill-opacity:1" />
  <path
     d="m2488.31 790.501c0 4.563-1.3 8.26-3.897 11.058s-5.962 4.197-10.092 4.197c-3.664 0-6.361-1.033-8.16-3.098s-2.664-5.263-2.664-9.626v-35.771h-14.555v35.871c0 8.16 1.798 14.223 5.361 18.186 3.564 3.964 8.96 5.929 16.188 5.929 4.563 0 8.593-1.132 12.057-3.431 2.564-1.731 4.496-4.13 6.129-6.895v9.193h14.222v-58.82h-14.556v33.207z"
     fill="#232b2d"
     id="path14"
     style="stroke:#000000;stroke-opacity:1;fill:#ffffff;fill-opacity:1" />
  <path
     d="m2550.959 756.129c-3.098 0-5.995.633-8.626 1.865-2.632 1.231-4.863 3.164-6.694 5.695-.833 1.165-1.533 2.531-2.166 3.963l-1.065-10.392h-14.089c.3 2.398.533 4.896.633 7.461.133 2.564.167 5.096.167 7.561v43.798h14.688v-31.341c0-3.198.566-6.028 1.698-8.493 1.132-2.498 2.831-4.43 5.129-5.829 2.298-1.398 5.097-2.099 8.427-2.099 1.565 0 2.864.067 3.896.233 1.066.167 2.299.533 3.798 1.166l.1-12.823c-.866-.3-1.698-.533-2.564-.633-.866-.133-1.999-.166-3.364-.166z"
     fill="#232b2d"
     id="path15"
     style="stroke:#000000;stroke-opacity:1;fill:#ffffff;fill-opacity:1" />
  <path
     d="m2607.381 767.12c-1.398-2.932-3.564-5.396-6.495-7.295-3.764-2.431-8.127-3.663-13.089-3.663-4.963 0-9.626 1.232-13.523 3.663-3.896 2.432-6.928 5.929-9.092 10.492-2.166 4.529-3.265 9.991-3.265 16.354 0 6.361 1.099 11.857 3.265 16.42 2.164 4.597 5.195 8.094 9.092 10.559 3.897 2.431 8.394 3.663 13.523 3.663 4.829 0 9.125-1.198 12.922-3.597 2.732-1.732 4.797-3.897 6.195-6.495l.1 8.927h14.455v-44.165c0-2.398.101-4.863.301-7.327.199-2.498.399-4.93.633-7.328h-13.989zm-4.463 34.172c-2.798 3.231-6.495 4.83-11.059 4.83-4.563 0-8.359-1.599-11.124-4.83-2.765-3.23-4.13-8.093-4.13-14.621s1.398-11.391 4.196-14.556c2.798-3.197 6.495-4.763 11.058-4.763s8.294 1.599 11.059 4.763c2.797 3.198 4.196 8.027 4.196 14.556s-1.399 11.391-4.196 14.621z"
     fill="#232b2d"
     id="path16"
     style="stroke:#000000;stroke-opacity:1;fill:#ffffff;fill-opacity:1" />
  <path
     d="m2671.796 756.129c-4.829 0-9.06 1.099-12.69 3.33-3.03 1.832-5.262 4.463-7.061 7.594l-.966-9.759h-14.089c.3 2.398.533 4.863.699 7.328.167 2.498.233 4.929.233 7.327v44.165h14.556v-33.207c0-4.663 1.332-8.394 3.963-11.191s6.229-4.196 10.725-4.196c3.664 0 6.395 1.032 8.227 3.098 1.832 2.064 2.731 5.462 2.731 10.191v35.306h14.556v-36.005c0-8.227-1.766-14.289-5.263-18.186s-8.693-5.829-15.621-5.829z"
     fill="#232b2d"
     id="path17"
     style="stroke:#000000;stroke-opacity:1;fill:#ffffff;fill-opacity:1" />
  <path
     d="m2751.299 767.12c-1.398-2.998-3.53-5.496-6.494-7.428-3.697-2.365-8.027-3.563-12.99-3.563-5.296 0-9.893 1.198-13.789 3.563-3.93 2.364-6.961 5.762-9.159 10.125-2.165 4.396-3.265 9.593-3.265 15.555s1.1 11.19 3.265 15.62 5.229 7.827 9.159 10.192c3.93 2.364 8.526 3.563 13.789 3.563 4.896 0 9.227-1.199 12.99-3.597 2.83-1.799 4.929-4.063 6.361-6.795v11.225c0 4.963-1.332 8.793-4.03 11.49-2.665 2.665-6.728 4.03-12.19 4.03-2.631 0-5.262-.232-7.794-.699-2.564-.466-5.063-1.166-7.46-2.099-2.398-.933-4.73-2.131-6.995-3.597l-3.131 10.491c3.397 2.398 7.327 4.197 11.69 5.362 4.396 1.166 9.293 1.766 14.756 1.766 9.625 0 16.953-2.432 21.949-7.294 5.029-4.863 7.527-11.891 7.527-21.15v-41.833c0-2.397.066-4.862.232-7.327.166-2.498.4-4.93.699-7.327h-14.088l-1 9.792zm-4.397 31.741c-2.764 3.131-6.461 4.729-11.124 4.729s-8.493-1.565-11.291-4.729c-2.798-3.131-4.196-7.628-4.196-13.456 0-5.829 1.398-10.292 4.196-13.39s6.562-4.663 11.291-4.663 8.36 1.565 11.124 4.663c2.765 3.098 4.13 7.561 4.13 13.39 0 5.828-1.398 10.325-4.13 13.456z"
     fill="#232b2d"
     id="path18"
     style="fill:#ffffff;fill-opacity:1;stroke:#000000;stroke-opacity:1.0" />
  <path
     d="m2824.074 767.12c-1.398-2.932-3.564-5.396-6.495-7.295-3.764-2.431-8.127-3.663-13.089-3.663-4.963 0-9.626 1.232-13.523 3.663-3.896 2.432-6.928 5.929-9.092 10.492-2.166 4.529-3.265 9.991-3.265 16.354 0 6.361 1.099 11.857 3.265 16.42 2.164 4.597 5.195 8.094 9.092 10.559 3.897 2.431 8.394 3.663 13.523 3.663 4.829 0 9.125-1.198 12.922-3.597 2.732-1.732 4.797-3.897 6.195-6.495l.1 8.927h14.455v-44.165c0-2.398.101-4.863.301-7.327.199-2.498.399-4.93.633-7.328h-13.989zm-4.463 34.172c-2.798 3.231-6.495 4.83-11.059 4.83-4.563 0-8.359-1.599-11.124-4.83-2.765-3.23-4.13-8.093-4.13-14.621s1.398-11.391 4.196-14.556c2.798-3.197 6.495-4.763 11.058-4.763s8.294 1.599 11.059 4.763c2.797 3.198 4.196 8.027 4.196 14.556s-1.399 11.391-4.196 14.621z"
     fill="#232b2d"
     id="path19"
     style="stroke:#000000;stroke-opacity:1;fill:#ffffff;fill-opacity:1" />
  <path
     d="m2929.423 759.858c-4.463-2.498-9.726-3.729-15.787-3.729s-11.291 1.231-15.721 3.729-7.86 5.995-10.325 10.525c-2.432 4.529-3.664 9.959-3.664 16.254s1.232 11.724 3.664 16.32c2.432 4.563 5.896 8.127 10.325 10.591 4.43 2.498 9.659 3.73 15.721 3.73s11.324-1.232 15.787-3.73c4.464-2.498 7.927-6.028 10.358-10.591 2.432-4.597 3.664-10.025 3.664-16.32s-1.232-11.725-3.664-16.254c-2.431-4.529-5.894-8.06-10.358-10.525zm-4.829 41.401c-2.731 3.231-6.361 4.83-10.958 4.83s-8.227-1.599-10.958-4.83c-2.731-3.23-4.097-8.093-4.097-14.621s1.365-11.392 4.097-14.556c2.731-3.197 6.361-4.763 10.958-4.763s8.227 1.599 10.958 4.763c2.73 3.198 4.063 8.027 4.063 14.556 0 6.527-1.366 11.39-4.063 14.621z"
     fill="#232b2d"
     id="path20"
     style="stroke:#000000;stroke-opacity:1;fill:#ffffff;fill-opacity:1" />
  <path
     d="m3018.385 734.013-37.17 82.135h15.154l8.261-18.985h40.468l8.26 18.985h15.254l-37.637-82.135zm6.195 16.087h.467l15.221 35.306h-30.575z"
     fill="#232b2d"
     id="path21"
     style="stroke:#000000;stroke-opacity:1;fill:#ffffff;fill-opacity:1" />
  <path
     d="m3118.871 759.858c-4.463-2.498-9.725-3.729-15.787-3.729s-11.291 1.231-15.721 3.729-7.86 5.995-10.325 10.525c-2.431 4.529-3.663 9.959-3.663 16.254s1.232 11.724 3.663 16.32c2.432 4.563 5.896 8.127 10.325 10.591 4.43 2.498 9.659 3.73 15.721 3.73 6.063 0 11.324-1.232 15.787-3.73 4.464-2.498 7.928-6.028 10.359-10.591 2.431-4.597 3.663-10.025 3.663-16.32s-1.232-11.725-3.663-16.254-5.895-8.06-10.359-10.525zm-4.829 41.401c-2.731 3.231-6.361 4.83-10.958 4.83-4.596 0-8.227-1.599-10.958-4.83-2.731-3.23-4.097-8.093-4.097-14.621s1.365-11.392 4.097-14.556c2.731-3.197 6.362-4.763 10.958-4.763 4.597 0 8.227 1.599 10.958 4.763 2.731 3.198 4.063 8.027 4.063 14.556 0 6.527-1.365 11.39-4.063 14.621z"
     fill="#232b2d"
     id="path22"
     style="stroke:#000000;stroke-opacity:1;fill:#ffffff;fill-opacity:1" />
  <path
     d="m3164.035 738.543-14.555 3.729v15.021h-11.291v10.958h11.291v27.145c0 7.295 1.799 12.79 5.362 16.421 3.563 3.663 8.859 5.462 15.854 5.462 1.465 0 2.997-.133 4.596-.399s3.064-.666 4.363-1.232v-11.524c-.999.4-2.031.7-3.098.933-1.032.233-2.298.333-3.797.333-2.73 0-4.863-.832-6.395-2.431-1.566-1.633-2.332-4.464-2.332-8.493v-26.213h15.721v-10.958h-15.721v-18.752z"
     fill="#232b2d"
     id="path23"
     style="stroke:#000000;stroke-opacity:1;fill:#ffffff;fill-opacity:1" />
  <path
     d="m3229.483 759.759c-3.798-2.398-8.526-3.597-14.222-3.597s-10.792 1.266-15.088 3.83c-4.297 2.564-7.661 6.128-10.093 10.725-2.397 4.597-3.597 9.959-3.597 16.087 0 9.492 2.798 16.953 8.393 22.382 5.596 5.43 13.323 8.16 23.182 8.16 4.33 0 8.46-.633 12.357-1.865 3.896-1.231 7.228-2.997 10.025-5.262l-4.33-9.792c-2.631 2.031-5.429 3.464-8.326 4.362-2.932.899-6.029 1.333-9.393 1.333-5.762 0-10.192-1.565-13.356-4.729-2.798-2.798-4.296-6.995-4.597-12.391h40.668v-3.863c0-5.829-.999-10.925-2.965-15.255-1.965-4.363-4.862-7.727-8.692-10.125zm-14.088 6.394c4.363 0 7.66 1.433 9.959 4.297 2.031 2.564 3.131 6.229 3.33 10.825h-28.11c.499-4.097 1.698-7.461 3.663-10.025 2.599-3.397 6.328-5.13 11.125-5.13z"
     fill="#232b2d"
     id="path24"
     style="stroke:#000000;stroke-opacity:1;fill:#ffffff;fill-opacity:1" />
  <path
     d="m3296.396 767.12c-1.399-2.932-3.564-5.396-6.495-7.295-3.764-2.431-8.127-3.663-13.089-3.663-4.963 0-9.627 1.232-13.523 3.663-3.896 2.432-6.928 5.929-9.092 10.492-2.166 4.529-3.265 9.991-3.265 16.354 0 6.361 1.099 11.857 3.265 16.42 2.164 4.597 5.195 8.094 9.092 10.559 3.896 2.431 8.394 3.663 13.523 3.663 4.829 0 9.125-1.198 12.922-3.597 2.731-1.732 4.797-3.897 6.195-6.495l.1 8.927h14.456v-44.165c0-2.398.1-4.863.3-7.327.199-2.498.399-4.93.633-7.328h-13.989zm-4.462 34.172c-2.799 3.231-6.496 4.83-11.059 4.83s-8.359-1.599-11.125-4.83c-2.764-3.23-4.129-8.093-4.129-14.621s1.398-11.391 4.196-14.556c2.798-3.164 6.495-4.763 11.058-4.763s8.293 1.599 11.059 4.763c2.797 3.198 4.196 8.027 4.196 14.556s-1.4 11.391-4.196 14.621z"
     fill="#232b2d"
     id="path25"
     style="stroke:#000000;stroke-opacity:1;fill:#ffffff;fill-opacity:1" />
  <path
     d="m3358.58 756.129c-3.098 0-5.995.633-8.627 1.865-2.631 1.231-4.862 3.164-6.694 5.695-.833 1.165-1.532 2.531-2.165 3.963l-1.066-10.392h-14.088c.3 2.398.533 4.896.633 7.461.133 2.564.166 5.096.166 7.561v43.798h14.688v-31.341c0-3.198.565-6.028 1.698-8.493 1.133-2.498 2.831-4.43 5.129-5.829 2.299-1.398 5.097-2.099 8.428-2.099 1.564 0 2.863.067 3.896.233 1.066.167 2.298.533 3.797 1.166l.1-12.823c-.865-.3-1.698-.533-2.564-.633-.865-.133-1.998-.166-3.363-.166z"
     fill="#232b2d"
     id="path26"
     style="stroke:#000000;stroke-opacity:1;fill:#ffffff;fill-opacity:1" />
  <path
     d="m3414.668 759.858c-4.463-2.498-9.725-3.729-15.787-3.729s-11.291 1.231-15.721 3.729-7.86 5.995-10.324 10.525c-2.432 4.529-3.664 9.959-3.664 16.254s1.232 11.724 3.664 16.32c2.431 4.563 5.895 8.127 10.324 10.591 4.43 2.498 9.659 3.73 15.721 3.73s11.324-1.232 15.787-3.73 7.928-6.028 10.358-10.591c2.432-4.597 3.664-10.025 3.664-16.32s-1.232-11.725-3.664-16.254c-2.43-4.529-5.895-8.06-10.358-10.525zm-4.829 41.401c-2.731 3.231-6.361 4.83-10.958 4.83-4.596 0-8.227-1.599-10.958-4.83-2.731-3.23-4.097-8.093-4.097-14.621s1.365-11.392 4.097-14.556c2.731-3.197 6.362-4.763 10.958-4.763 4.597 0 8.227 1.599 10.958 4.763 2.731 3.198 4.063 8.027 4.063 14.556 0 6.527-1.365 11.39-4.063 14.621z"
     fill="#232b2d"
     id="path27"
     style="stroke:#000000;stroke-opacity:1;fill:#ffffff;fill-opacity:1" />
  <path
     d="m3485.212 757.294-1.032 9.792c-1.399-2.931-3.564-5.396-6.495-7.294-3.764-2.432-8.127-3.663-13.09-3.663-4.962 0-9.626 1.231-13.522 3.663s-6.928 5.929-9.092 10.492c-2.166 4.529-3.265 9.991-3.265 16.354 0 6.361 1.099 11.856 3.265 16.42 2.164 4.597 5.195 8.094 9.092 10.558 3.896 2.432 8.394 3.664 13.522 3.664 4.829 0 9.126-1.199 12.923-3.597 2.731-1.732 4.797-3.897 6.195-6.495l.1 8.926h14.455v-44.164c0-2.398.101-4.863.301-7.327.199-2.498.399-4.93.633-7.328h-13.99zm-5.462 43.965c-2.799 3.231-6.495 4.83-11.059 4.83-4.563 0-8.359-1.599-11.124-4.83-2.765-3.23-4.13-8.094-4.13-14.621 0-6.528 1.398-11.392 4.196-14.556 2.798-3.197 6.495-4.763 11.058-4.763s8.293 1.599 11.059 4.763c2.797 3.198 4.196 8.027 4.196 14.556 0 6.527-1.399 11.39-4.196 14.621z"
     fill="#232b2d"
     id="path28"
     style="stroke:#000000;stroke-opacity:1;fill:#ffffff;fill-opacity:1" />
  <g
     fill="#1a9aa9"
     id="g64"
     style="stroke:#000000;stroke-opacity:1;fill:#ffffff;fill-opacity:1">
    <path
       d="m1556.621 956.768-47.629-62.916h-8.193v80.302h9.926v-63.05l47.695 63.05h8.094v-80.302h-9.893z"
       id="path29"
       style="stroke:#000000;stroke-opacity:1;fill:#ffffff;fill-opacity:1" />
    <path
       d="m1622.769 919.198c-3.631-2.231-8.094-3.364-13.323-3.364s-10.258 1.232-14.354 3.697-7.294 5.929-9.626 10.358c-2.331 4.43-3.464 9.692-3.464 15.787 0 9.192 2.632 16.387 7.927 21.649 5.263 5.229 12.457 7.86 21.583 7.86 4.163 0 8.193-.633 12.023-1.932 3.831-1.299 7.028-3.098 9.626-5.463l-3.431-7.194c-2.731 2.266-5.596 3.897-8.526 4.896-2.965.999-6.162 1.466-9.559 1.466-6.162 0-10.959-1.799-14.422-5.362-3.298-3.397-4.963-8.394-5.13-14.922h41.866v-3.431c0-5.629-.965-10.491-2.863-14.588-1.899-4.097-4.664-7.261-8.327-9.526zm-26.212 9.892c3.03-3.83 7.327-5.762 12.855-5.762 5.096 0 8.927 1.632 11.558 4.896 2.398 2.964 3.631 7.094 3.83 12.29h-32.573c.532-4.63 1.932-8.46 4.296-11.458z"
       id="path30"
       style="stroke:#000000;stroke-opacity:1;fill:#ffffff;fill-opacity:1" />
    <path
       d="m1708.933 961.964-16.22-45.098h-8.427l-16.254 44.931-15.854-44.931h-10.824l21.416 57.288h9.892l15.621-42.999 15.721 42.999h9.792l21.516-57.288h-10.359z"
       id="path31"
       style="stroke:#000000;stroke-opacity:1;fill:#ffffff;fill-opacity:1" />
    <path
       d="m1832.001 901.612v-7.76h-57.854v8.993h45.064l-45.064 63.449v7.86h59.22v-8.993h-46.53z"
       id="path32"
       style="stroke:#000000;stroke-opacity:1;fill:#ffffff;fill-opacity:1" />
    <path
       d="m1882.228 919.198c-3.63-2.231-8.094-3.364-13.323-3.364s-10.258 1.232-14.354 3.697-7.294 5.929-9.626 10.358c-2.331 4.43-3.464 9.692-3.464 15.787 0 9.192 2.632 16.387 7.927 21.649 5.263 5.229 12.457 7.86 21.583 7.86 4.163 0 8.193-.633 12.024-1.932 3.83-1.299 7.027-3.098 9.625-5.463l-3.431-7.194c-2.731 2.266-5.596 3.897-8.526 4.896-2.965.999-6.162 1.466-9.559 1.466-6.162 0-10.958-1.799-14.422-5.362-3.298-3.397-4.963-8.394-5.13-14.922h41.866v-3.431c0-5.629-.965-10.491-2.863-14.588s-4.664-7.261-8.327-9.526zm-26.212 9.892c3.03-3.83 7.327-5.762 12.855-5.762 5.097 0 8.927 1.632 11.558 4.896 2.398 2.964 3.631 7.094 3.831 12.29h-32.574c.533-4.63 1.932-8.46 4.297-11.458z"
       id="path33"
       style="stroke:#000000;stroke-opacity:1;fill:#ffffff;fill-opacity:1" />
    <path
       d="m1949.041 927.125c-1.399-3.031-3.498-5.529-6.361-7.461-3.764-2.531-8.194-3.83-13.257-3.83s-9.426 1.166-13.223 3.53c-3.797 2.365-6.761 5.763-8.893 10.192s-3.197 9.726-3.197 15.887c0 6.162 1.065 11.458 3.197 15.954s5.096 7.894 8.893 10.259c3.797 2.364 8.193 3.53 13.223 3.53s9.393-1.266 13.156-3.83c2.765-1.865 4.829-4.23 6.195-7.062v9.859h10.358v-43.732c0-2.198.1-4.43.3-6.728.2-2.265.399-4.563.633-6.828h-10.025l-.966 10.259h-.033zm-4.83 34.405c-3.098 3.631-7.261 5.463-12.423 5.463-5.163 0-9.426-1.832-12.523-5.463-3.098-3.63-4.663-8.992-4.663-16.054 0-7.061 1.565-12.39 4.729-15.953 3.164-3.564 7.294-5.363 12.457-5.363 5.162 0 9.292 1.799 12.423 5.363 3.098 3.563 4.663 8.893 4.663 15.953 0 7.062-1.565 12.424-4.663 16.054z"
       id="path34"
       style="stroke:#000000;stroke-opacity:1;fill:#ffffff;fill-opacity:1" />
    <path
       d="m1977.019 890.321h10.358v83.833h-10.358z"
       id="path35"
       style="stroke:#000000;stroke-opacity:1;fill:#ffffff;fill-opacity:1" />
    <path
       d="m2046.763 927.092c-1.399-3.031-3.497-5.496-6.362-7.461-3.764-2.531-8.193-3.83-13.256-3.83s-9.426 1.166-13.223 3.53c-3.797 2.365-6.761 5.763-8.893 10.192s-3.197 9.726-3.197 15.887c0 6.162 1.065 11.458 3.197 15.954s5.096 7.894 8.893 10.259c3.797 2.364 8.193 3.53 13.223 3.53s9.393-1.266 13.156-3.83c2.765-1.865 4.797-4.23 6.195-7.062v9.826h10.392v-43.732c0-2.198.101-4.43.3-6.728.199-2.265.399-4.563.633-6.828h-10.025l-.966 10.226zm-4.829 34.405c-3.098 3.631-7.262 5.463-12.424 5.463s-9.426-1.832-12.523-5.463c-3.098-3.63-4.662-8.992-4.662-16.054 0-7.061 1.564-12.39 4.729-15.954 3.164-3.563 7.295-5.362 12.457-5.362s9.293 1.799 12.424 5.362c3.098 3.564 4.662 8.894 4.662 15.954-.001 7.062-1.566 12.424-4.663 16.054z"
       id="path36"
       style="stroke:#000000;stroke-opacity:1;fill:#ffffff;fill-opacity:1" />
    <path
       d="m2104.449 915.834c-4.862 0-9.125 1.133-12.756 3.431-2.998 1.865-5.195 4.63-6.895 7.894l-.966-10.292h-10.025c.3 2.299.533 4.563.666 6.828.134 2.265.233 4.496.233 6.728v43.732h10.358v-32.575c0-5.329 1.499-9.525 4.496-12.656 2.998-3.098 7.095-4.663 12.257-4.663 4.33 0 7.527 1.166 9.559 3.464 2.065 2.331 3.064 6.095 3.064 11.324v35.072h10.359v-35.639c0-7.761-1.699-13.456-5.13-17.152-3.431-3.697-8.493-5.529-15.255-5.529z"
       id="path37"
       style="stroke:#000000;stroke-opacity:1;fill:#ffffff;fill-opacity:1" />
    <path
       d="m2183.619 926.559c-1.432-2.798-3.496-5.129-6.194-6.961-3.764-2.498-8.16-3.764-13.156-3.764s-9.426 1.166-13.223 3.53c-3.797 2.365-6.761 5.763-8.894 10.192-2.131 4.43-3.197 9.726-3.197 15.887 0 6.162 1.066 11.458 3.197 15.954 2.133 4.496 5.097 7.894 8.894 10.259 3.797 2.364 8.193 3.53 13.223 3.53s9.526-1.266 13.256-3.83c2.765-1.865 4.829-4.264 6.195-7.161v9.959h10.259v-83.833h-10.359v36.238zm-4.496 34.972c-3.164 3.63-7.294 5.462-12.457 5.462-5.162 0-9.325-1.832-12.456-5.462-3.164-3.631-4.729-8.993-4.729-16.055 0-7.061 1.565-12.39 4.729-15.953 3.164-3.564 7.294-5.362 12.456-5.362 5.163 0 9.326 1.798 12.457 5.362 3.164 3.563 4.73 8.893 4.73 15.953.001 7.062-1.566 12.424-4.73 16.055z"
       id="path38"
       style="stroke:#000000;stroke-opacity:1;fill:#ffffff;fill-opacity:1" />
    <path
       d="m2297.795 897.849c-5.596-3.331-12.189-4.996-19.884-4.996s-14.422 1.665-19.984 4.996c-5.595 3.33-9.858 8.094-12.823 14.222-2.964 6.162-4.43 13.456-4.43 21.883s1.499 15.621 4.496 21.815c2.998 6.195 7.262 10.958 12.824 14.355 5.528 3.397 12.189 5.063 19.95 5.063 1.065 0 2.032-.1 3.03-.167 1.433 2.632 3.064 5.229 4.996 7.794 2.099 2.798 4.33 5.362 6.729 7.628 2.398 2.265 4.696 4.13 6.895 5.595l7.294-6.161c-3.264-2.265-6.462-5.029-9.626-8.261-2.498-2.564-4.529-5.429-6.295-8.46 2.432-.799 4.73-1.765 6.861-3.03 5.596-3.364 9.893-8.16 12.924-14.355 3.03-6.195 4.563-13.489 4.563-21.916s-1.532-15.62-4.563-21.749c-3.031-6.162-7.328-10.892-12.924-14.222zm-.566 59.619c-4.596 5.595-11.024 8.359-19.317 8.359-8.294 0-15.088-2.798-19.484-8.427s-6.595-13.455-6.595-23.447 2.198-17.919 6.595-23.448 10.892-8.326 19.484-8.326 14.788 2.764 19.351 8.326c4.563 5.529 6.828 13.356 6.828 23.448s-2.298 17.952-6.895 23.515z"
       id="path39"
       style="stroke:#000000;stroke-opacity:1;fill:#ffffff;fill-opacity:1" />
    <path
       d="m2369.938 949.44c0 5.229-1.466 9.426-4.396 12.59-2.932 3.164-6.795 4.729-11.558 4.729-4.263 0-7.394-1.166-9.459-3.53s-3.064-6.028-3.064-11.058v-35.306h-10.358v35.539c0 7.76 1.732 13.488 5.196 17.186 3.464 3.73 8.626 5.596 15.554 5.596 4.696 0 8.793-1.199 12.291-3.597 2.664-1.832 4.596-4.396 6.161-7.328v9.893h10.025v-57.288h-10.358v32.574z"
       id="path40"
       style="stroke:#000000;stroke-opacity:1;fill:#ffffff;fill-opacity:1" />
    <path
       d="m2439.814 927.125c-1.398-3.031-3.497-5.529-6.361-7.461-3.764-2.531-8.193-3.83-13.256-3.83s-9.426 1.166-13.223 3.53c-3.797 2.365-6.762 5.763-8.893 10.192-2.133 4.43-3.198 9.726-3.198 15.887 0 6.162 1.065 11.458 3.198 15.954 2.131 4.496 5.096 7.894 8.893 10.259 3.797 2.364 8.193 3.53 13.223 3.53s9.393-1.266 13.156-3.83c2.764-1.865 4.829-4.23 6.195-7.062v9.859h10.357v-43.732c0-2.198.1-4.43.301-6.728.199-2.265.398-4.563.633-6.828h-10.025l-.967 10.259h-.033zm-4.829 34.405c-3.098 3.631-7.261 5.463-12.423 5.463-5.163 0-9.426-1.832-12.523-5.463-3.131-3.63-4.664-8.992-4.664-16.054 0-7.061 1.566-12.39 4.73-15.953 3.164-3.564 7.294-5.363 12.457-5.363 5.162 0 9.292 1.799 12.423 5.363 3.098 3.563 4.663 8.893 4.663 15.953 0 7.062-1.565 12.424-4.663 16.054z"
       id="path41"
       style="stroke:#000000;stroke-opacity:1;fill:#ffffff;fill-opacity:1" />
    <path
       d="m2467.793 890.321h10.357v83.833h-10.357z"
       id="path42"
       style="stroke:#000000;stroke-opacity:1;fill:#ffffff;fill-opacity:1" />
    <path
       d="m2495.104 893.186h12.291v11.158h-12.291z"
       id="path43"
       style="stroke:#000000;stroke-opacity:1;fill:#ffffff;fill-opacity:1" />
    <path
       d="m2496.037 916.866h10.357v57.288h-10.357z"
       id="path44"
       style="stroke:#000000;stroke-opacity:1;fill:#ffffff;fill-opacity:1" />
    <path
       d="m2562.316 893.186h12.291v11.158h-12.291z"
       id="path45"
       style="stroke:#000000;stroke-opacity:1;fill:#ffffff;fill-opacity:1" />
    <path
       d="m2537.803 910.938c0-4.263.899-7.394 2.731-9.393 1.832-1.998 4.43-3.03 7.86-3.03 1.299 0 2.631.1 3.997.333 1.365.233 2.498.533 3.431.899v-8.427c-1.133-.533-2.564-.899-4.264-1.133-1.698-.232-3.33-.333-4.829-.333-6.229 0-10.991 1.732-14.289 5.196-3.297 3.464-4.962 8.526-4.962 15.221v6.595h-11.158v7.961h11.158v49.327h10.357v-49.327h25.514v49.327h10.357v-57.288h-35.871v-5.929h-.032z"
       id="path46"
       style="stroke:#000000;stroke-opacity:1;fill:#ffffff;fill-opacity:1" />
    <path
       d="m2616.873 924.161c2.564 0 5.195.499 7.86 1.531 2.665 1.033 5.096 2.599 7.294 4.729l3.531-7.294c-2.199-2.364-5.063-4.163-8.527-5.429-3.496-1.266-7.094-1.865-10.824-1.865-5.629 0-10.525 1.166-14.688 3.464s-7.427 5.662-9.792 10.025-3.53 9.626-3.53 15.754c0 6.129 1.165 11.591 3.464 16.121 2.331 4.529 5.563 7.96 9.726 10.358 4.163 2.397 9.126 3.597 14.788 3.597 3.563 0 7.127-.633 10.658-1.865 3.53-1.266 6.428-3.098 8.727-5.529l-3.531-7.194c-2.265 2.132-4.763 3.697-7.394 4.663-2.665.999-5.229 1.466-7.728 1.466-5.629 0-10.025-1.865-13.223-5.596s-4.796-9.026-4.796-15.954 1.599-12.057 4.796-15.654 7.594-5.396 13.223-5.396z"
       id="path47"
       style="stroke:#000000;stroke-opacity:1;fill:#ffffff;fill-opacity:1" />
    <path
       d="m2689.814 927.125c-1.398-3.031-3.497-5.529-6.361-7.461-3.764-2.531-8.193-3.83-13.256-3.83s-9.426 1.166-13.223 3.53c-3.797 2.365-6.762 5.763-8.893 10.192-2.133 4.43-3.198 9.726-3.198 15.887 0 6.162 1.065 11.458 3.198 15.954 2.131 4.496 5.096 7.894 8.893 10.259 3.797 2.364 8.193 3.53 13.223 3.53s9.393-1.266 13.156-3.83c2.764-1.865 4.829-4.23 6.195-7.062v9.859h10.357v-43.732c0-2.198.1-4.43.3-6.728.2-2.265.399-4.563.634-6.828h-10.025l-.967 10.259h-.033zm-4.829 34.405c-3.098 3.631-7.261 5.463-12.423 5.463-5.163 0-9.426-1.832-12.523-5.463-3.131-3.63-4.664-8.992-4.664-16.054 0-7.061 1.566-12.39 4.73-15.953 3.164-3.564 7.294-5.363 12.457-5.363 5.162 0 9.292 1.799 12.423 5.363 3.098 3.563 4.663 8.893 4.663 15.953 0 7.062-1.565 12.424-4.663 16.054z"
       id="path48"
       style="stroke:#000000;stroke-opacity:1;fill:#ffffff;fill-opacity:1" />
    <path
       d="m2731.314 898.647-10.357 2.864v15.388h-11.158v7.961h11.158v30.409c0 6.694 1.531 11.657 4.596 14.987 3.064 3.298 7.627 4.963 13.623 4.963 1.365 0 2.797-.133 4.263-.399s2.798-.633 3.931-1.066v-8.526c-.933.4-1.932.7-3.031.966-1.1.267-2.398.4-3.93.4-2.965 0-5.229-.933-6.762-2.798-1.565-1.865-2.332-4.996-2.332-9.393v-29.51h16.188v-7.96h-16.188v-18.219-.067z"
       id="path49"
       style="stroke:#000000;stroke-opacity:1;fill:#ffffff;fill-opacity:1" />
    <path
       d="m2758.893 916.866h10.358v57.288h-10.358z"
       id="path50"
       style="stroke:#000000;stroke-opacity:1;fill:#ffffff;fill-opacity:1" />
    <path
       d="m2757.994 893.186h12.289v11.158h-12.289z"
       id="path51"
       style="stroke:#000000;stroke-opacity:1;fill:#ffffff;fill-opacity:1" />
    <path
       d="m2825.939 919.431c-4.131-2.397-9.026-3.597-14.655-3.597s-10.491 1.199-14.589 3.597c-4.096 2.398-7.293 5.796-9.559 10.259-2.265 4.43-3.431 9.726-3.431 15.888 0 6.161 1.133 11.324 3.431 15.787 2.266 4.43 5.463 7.86 9.559 10.259 4.098 2.397 8.96 3.597 14.589 3.597s10.491-1.199 14.655-3.597c4.13-2.398 7.327-5.796 9.559-10.259 2.232-4.43 3.364-9.726 3.364-15.888 0-6.161-1.132-11.324-3.364-15.787-2.231-4.43-5.429-7.861-9.559-10.259zm-2.232 42.066c-3.097 3.631-7.26 5.463-12.423 5.463s-9.393-1.832-12.456-5.463c-3.064-3.63-4.597-8.992-4.597-16.054 0-7.061 1.532-12.39 4.597-15.954 3.063-3.563 7.227-5.362 12.456-5.362s9.292 1.799 12.423 5.362c3.098 3.564 4.664 8.894 4.664 15.954 0 7.062-1.566 12.424-4.664 16.054z"
       id="path52"
       style="stroke:#000000;stroke-opacity:1;fill:#ffffff;fill-opacity:1" />
    <path
       d="m2883.027 915.834c-4.863 0-9.127 1.133-12.757 3.431-2.997 1.865-5.196 4.63-6.895 7.894l-.966-10.292h-10.025c.3 2.299.533 4.563.666 6.828s.233 4.496.233 6.728v43.732h10.358v-32.575c0-5.329 1.498-9.525 4.496-12.656 2.998-3.098 7.095-4.663 12.257-4.663 4.33 0 7.527 1.166 9.56 3.464 2.064 2.331 3.064 6.095 3.064 11.324v35.072h10.357v-35.639c0-7.761-1.698-13.456-5.129-17.152-3.431-3.697-8.493-5.529-15.254-5.529z"
       id="path53"
       style="stroke:#000000;stroke-opacity:1;fill:#ffffff;fill-opacity:1" />
    <path
       d="m2948.074 943.046-10.824-2.165c-2.897-.699-4.963-1.699-6.262-3.031s-1.932-3.03-1.932-5.063c0-2.731 1.066-4.963 3.197-6.661 2.132-1.698 5.396-2.564 9.793-2.564 3.03 0 6.027.532 8.926 1.665 2.931 1.1 5.563 2.665 7.927 4.729l3.431-6.928c-2.365-2.364-5.329-4.13-8.926-5.362-3.598-1.199-7.494-1.832-11.658-1.832-4.563 0-8.525.733-11.891 2.232-3.396 1.498-5.961 3.53-7.793 6.161-1.832 2.632-2.731 5.596-2.731 8.927 0 4.029 1.232 7.294 3.697 9.858 2.464 2.531 6.128 4.396 10.991 5.529l10.824 2.164c3.098.6 5.396 1.565 6.828 2.831 1.432 1.3 2.165 2.998 2.165 5.13 0 2.664-1.133 4.796-3.364 6.361-2.231 1.599-5.529 2.398-9.858 2.398-3.563 0-7.028-.533-10.425-1.666-3.397-1.099-6.462-2.73-9.293-4.829l-3.297 7.194c2.564 2.265 5.861 4.03 9.858 5.229 3.997 1.198 8.293 1.831 12.923 1.831s8.693-.666 12.123-2.031c3.465-1.365 6.162-3.331 8.094-5.929 1.932-2.564 2.898-5.662 2.898-9.226 0-4.03-1.299-7.261-3.864-9.692-2.598-2.432-6.428-4.163-11.491-5.229z"
       id="path54"
       style="stroke:#000000;stroke-opacity:1;fill:#ffffff;fill-opacity:1" />
    <path
       d="m3037.236 893.852-35.537 80.303h10.824l8.727-20.051h41.666l8.727 20.051h10.925l-36.104-80.303zm4.43 11.857h.467l17.187 39.734h-34.405z"
       id="path55"
       style="stroke:#000000;stroke-opacity:1;fill:#ffffff;fill-opacity:1" />
    <path
       d="m3131.895 949.44c0 5.229-1.466 9.426-4.396 12.59-2.932 3.164-6.795 4.729-11.558 4.729-4.263 0-7.394-1.166-9.459-3.53s-3.064-6.028-3.064-11.058v-35.306h-10.358v35.539c0 7.76 1.732 13.488 5.196 17.186 3.464 3.73 8.626 5.596 15.554 5.596 4.697 0 8.793-1.199 12.291-3.597 2.664-1.832 4.596-4.396 6.161-7.328v9.893h10.025v-57.288h-10.358v32.574z"
       id="path56"
       style="stroke:#000000;stroke-opacity:1;fill:#ffffff;fill-opacity:1" />
    <path
       d="m3173.828 898.647-10.359 2.864v15.388h-11.157v7.961h11.157v30.409c0 6.694 1.533 11.657 4.597 14.987 3.064 3.298 7.628 4.963 13.622 4.963 1.366 0 2.799-.133 4.264-.399 1.466-.267 2.798-.633 3.93-1.066v-8.526c-.932.4-1.932.7-3.03.966-1.099.267-2.397.4-3.931.4-2.964 0-5.229-.933-6.761-2.798-1.565-1.865-2.331-4.996-2.331-9.393v-29.51h16.187v-7.96h-16.187v-18.219-.067z"
       id="path57"
       style="stroke:#000000;stroke-opacity:1;fill:#ffffff;fill-opacity:1" />
    <path
       d="m3231.215 915.834c-4.863 0-9.159 1.133-12.856 3.431-2.897 1.766-4.962 4.363-6.595 7.394v-36.337h-10.357v83.833h10.357v-32.808c0-5.162 1.532-9.292 4.597-12.423 3.063-3.098 7.128-4.663 12.124-4.663 4.463 0 7.693 1.166 9.691 3.464 1.966 2.331 2.965 6.028 2.965 11.091v35.306h10.358v-35.872c0-7.527-1.665-13.122-4.963-16.853s-8.394-5.596-15.321-5.596z"
       id="path58"
       style="stroke:#000000;stroke-opacity:1;fill:#ffffff;fill-opacity:1" />
    <path
       d="m3307.82 919.431c-4.13-2.397-9.026-3.597-14.655-3.597-5.628 0-10.491 1.199-14.588 3.597s-7.294 5.796-9.56 10.259c-2.298 4.43-3.43 9.726-3.43 15.888 0 6.161 1.132 11.324 3.43 15.787 2.266 4.43 5.463 7.86 9.56 10.259 4.097 2.397 8.96 3.597 14.588 3.597 5.629 0 10.492-1.199 14.655-3.597 4.13-2.398 7.328-5.796 9.559-10.259 2.232-4.43 3.364-9.726 3.364-15.888 0-6.161-1.132-11.324-3.364-15.787-2.231-4.43-5.429-7.861-9.559-10.259zm-2.231 42.066c-3.098 3.631-7.261 5.463-12.423 5.463-5.163 0-9.393-1.832-12.457-5.463-3.064-3.63-4.597-8.992-4.597-16.054 0-7.061 1.532-12.39 4.597-15.954 3.064-3.563 7.228-5.362 12.457-5.362s9.292 1.799 12.423 5.362c3.098 3.564 4.663 8.894 4.663 15.954 0 7.062-1.565 12.424-4.663 16.054z"
       id="path59"
       style="stroke:#000000;stroke-opacity:1;fill:#ffffff;fill-opacity:1" />
    <path
       d="m3362.643 915.834c-2.797 0-5.528.566-8.16 1.665-2.631 1.1-4.862 2.798-6.728 5.13-1.065 1.299-1.865 2.864-2.564 4.529l-.899-10.292h-10.025c.3 2.299.5 4.597.633 6.995.1 2.397.166 4.729.166 6.994v43.299h10.359v-33.04c0-2.898.633-5.596 1.898-8.094s3.063-4.53 5.462-6.028c2.397-1.499 5.263-2.266 8.593-2.266 1.365 0 2.531.067 3.465.167.932.1 1.998.399 3.131.866l.232-9.227c-.832-.3-1.665-.499-2.498-.566-.832-.066-1.865-.1-3.064-.1v-.032z"
       id="path60"
       style="stroke:#000000;stroke-opacity:1;fill:#ffffff;fill-opacity:1" />
    <path
       d="m3376.998 893.186h12.291v11.158h-12.291z"
       id="path61"
       style="stroke:#000000;stroke-opacity:1;fill:#ffffff;fill-opacity:1" />
    <path
       d="m3377.898 916.866h10.357v57.288h-10.357z"
       id="path62"
       style="stroke:#000000;stroke-opacity:1;fill:#ffffff;fill-opacity:1" />
    <path
       d="m3419.697 898.647-10.357 2.864v15.388h-11.158v7.961h11.158v30.409c0 6.694 1.531 11.657 4.596 14.987 3.064 3.298 7.627 4.963 13.623 4.963 1.365 0 2.797-.133 4.263-.399s2.798-.633 3.931-1.066v-8.526c-.934.4-1.932.7-3.031.966-1.1.267-2.398.4-3.93.4-2.965 0-5.229-.933-6.762-2.798-1.565-1.865-2.332-4.996-2.332-9.393v-29.51h16.188v-7.96h-16.188v-18.219-.067z"
       id="path63"
       style="stroke:#000000;stroke-opacity:1;fill:#ffffff;fill-opacity:1" />
    <path
       d="m3488.51 916.866-18.452 45.464-18.452-45.464h-11.158l24.148 56.555-1.832 4.363c-1.199 2.665-2.631 4.863-4.23 6.595s-3.563 3.164-5.929 4.264c-2.364 1.099-5.329 2.064-8.893 2.897l2.397 8.427c3.031-.533 5.829-1.266 8.428-2.165 2.564-.899 4.962-2.165 7.127-3.764s4.164-3.63 6.028-6.162c1.865-2.497 3.598-5.628 5.196-9.325l26.313-61.718h-10.691z"
       id="path64"
       style="stroke:#000000;stroke-opacity:1;fill:#ffffff;fill-opacity:1" />
  </g>
  <path
     d="m2144.551 447.409 243.339-334.966v-79.669h-365.308v87.43h241.34l-241.34 334.266v80.369h373.035v-87.43z"
     fill="#232b2d"
     id="path65"
     style="stroke:#000000;stroke-opacity:1;fill:#ffffff;fill-opacity:1" />
  <path
     d="m3389.889 534.839h109.313l-230.583-502.065h-88.863l-230.582 502.065h110.712l48.128-111.411h234.113zm-245.638-195.311 81.269-188.149 80.636 188.149z"
     fill="#232b2d"
     id="path66"
     style="stroke:#000000;stroke-opacity:1;fill:#ffffff;fill-opacity:1" />
  <path
     d="m1832.201 32.774v319.411l-250.3-319.411h-81.102v502.065h102.951v-319.777l250.334 319.777h81.801v-502.065z"
     fill="#232b2d"
     id="path67"
     style="stroke:#000000;stroke-opacity:1;fill:#ffffff;fill-opacity:1" />
  <path
     d="m3029.609 579.137c-40.634 5.995-74.807-2.631-98.555-8.593-22.182-5.596-25.713-9.06-74.073-24.48 0 0-34.439-10.958-62.185-18.519-1.165-.3-2.297-.6-3.43-.899 13.223-4.763 25.846-10.458 37.703-17.319 15.953-9.26 30.408-20.117 43.332-32.574 5.828-5.629 27.345-26.879 45.497-61.851 28.577-54.956 29.743-106.848 30.142-139.955.334-29.776-3.563-56.655-10.258-80.935-17.453-63.549-72.109-130.263-158.24-142.12 0 0-52.392-7.194-106.581 16.221-17.286 6.694-49.728 21.716-73.94 50.959-9.56 11.524-16.32 23.415-17.553 25.613-12.124 21.516-16.754 40.201-18.152 46.363-2.865 12.556-8.094 37.003-1.166 66.78 2.697 11.558 7.127 29.576 21.883 46.629 6.328 7.328 21.482 24.847 42.332 24.747 8.36-.033 12.357-1.166 16.254-2.697 3.93-1.532 10.592-5.596 14.488-11.392 4.83-7.16 4.23-15.054 3.83-18.019-.898.999-7.327 7.994-16.853 7.394-5.896-.399-9.893-3.497-11.358-4.663-7.027-5.628-8.093-13.622-8.227-14.921-.898-7.993 2.832-13.822 3.997-15.587 6.295-9.492 16.887-10.958 18.286-11.125 12.156-1.499 20.75 6.462 23.181 8.693 6.295 5.829 8.593 12.557 9.792 16.253 4.164 12.723 3.931 30.909-7.027 45.597-10.592 14.222-25.813 17.785-32.008 19.251-17.02 4.03-30.809-.466-38.27-2.998-17.319-5.861-27.978-16.319-33.106-21.449-2.198-2.198-7.028-7.228-12.59-15.621-6.429-9.659-17.153-28.743-22.482-58.686v.133c-2.598-15.421-4.529-38.336.467-65.314 8.093-43.499 29.71-72.342 43.465-90.294 10.425-13.589 29.11-37.437 61.851-56.955 25.18-15.021 47.762-20.95 63.549-24.98 11.857-3.031 25.48-6.428 41.234-7.827-16.787-2.698-34.439-4.097-52.991-4.097-53.024 0-98.888 11.058-137.557 33.107s-68.545 53.424-89.595 94.058c-34.973 67.446-32.241 133.56-31.608 143.519 1.698 26.612 6.028 94.658 59.286 150.513 12.557 13.156 49.76 51.059 110.578 60.185 70.211 10.559 124.566-24.347 137.523-33.273 2.965-2.031 5.795-4.13 8.526-6.262-16.92 7.328-35.972 11.025-57.188 11.025-44.132 0-78.804-15.354-104.116-46.097-12.124-14.722-21.217-32.94-27.545-54.423 2.831 2.864 5.861 5.562 9.492 8.193 3.73 2.73 18.519 13.022 40.701 16.087 4.129.566 22.281 2.798 44.064-4.563 9.459-3.197 25.08-8.46 38.27-23.681 4.196-4.829 17.452-21.449 18.219-46.163.232-7.161.1-38.669-24.314-56.488-13.622-9.958-28.244-10.858-33.406-10.924-5.329-.067-19.085-.1-32.207 9.126-3.564 2.498-12.291 8.793-16.721 20.65-1.465 3.964-5.229 13.989-.865 24.68 2.098 5.196 5.361 8.66 7.527 10.658-2.199-1.798-5.196-4.496-8.261-8.227-11.957-14.588-13.489-31.275-14.722-46.43-1.665-20.783 1.332-37.104 2.731-43.798 6.628-31.308 21.283-51.725 24.58-56.188 12.557-16.986 25.847-26.712 28.844-28.843 19.185-13.689 39.669-19.385 56.555-21.549 3.497-.367 7.028-.5 10.625-.5 20.018 0 38.669 5.729 54.59 15.488 10.925 6.861 20.85 15.454 29.643 25.913 17.386 20.75 28.743 48.295 34.306 82.5 3.83 20.517 6.029 42.899 6.295 66.38 2.765 89.396-30.941 169.397-93.725 211.797-7.027 4.729-17.553 10.925-30.908 16.653-71.344-6.161-125.334 3.897-125.334 3.897-26.645 4.996-70.41 13.622-119.037 42.966-25.779 15.554-44.998 32.174-57.987 44.83 91.693-30.908 163.802-30.309 209.199-25.379 49.794 5.429 100.021 19.65 113.276 23.447 78.304 22.449 98.92 41.867 157.807 46.097 17.12 1.232 53.957 3.563 96.956-9.293 74.64-22.315 118.938-75.772 137.489-101.618-39.201 30.143-75.705 38.369-94.291 41.101z"
     fill="#1a9aa9"
     id="path68"
     style="stroke:#000000;stroke-opacity:1;fill:#ffffff;fill-opacity:1" />
</svg>
