<?xml version="1.0" encoding="UTF-8" standalone="no"?>
<svg
   fill="none"
   viewBox="0 0 499.99786 86.268997"
   class="header__img logo--dark"
   role="presentation"
   focusable="false"
   tabindex="-1"
   width="499.99786"
   height="86.268997"
   version="1.1"
   id="svg6"
   sodipodi:docname="Partners_Life_logo.svg"
   inkscape:version="1.3.1 (91b66b0783, 2023-11-16)"
   xmlns:inkscape="http://www.inkscape.org/namespaces/inkscape"
   xmlns:sodipodi="http://sodipodi.sourceforge.net/DTD/sodipodi-0.dtd"
   xmlns="http://www.w3.org/2000/svg"
   xmlns:svg="http://www.w3.org/2000/svg">
  <defs
     id="defs10" />
  <sodipodi:namedview
     id="namedview8"
     pagecolor="#ffffff"
     bordercolor="#666666"
     borderopacity="1.0"
     inkscape:pageshadow="2"
     inkscape:pageopacity="0.0"
     inkscape:pagecheckerboard="0"
     showgrid="false"
     inkscape:zoom="1.8426576"
     inkscape:cx="221.41932"
     inkscape:cy="-25.23529"
     inkscape:window-width="2256"
     inkscape:window-height="1398"
     inkscape:window-x="-11"
     inkscape:window-y="-11"
     inkscape:window-maximized="1"
     inkscape:current-layer="svg6"
     inkscape:showpageshadow="2"
     inkscape:deskcolor="#d1d1d1" />
  <path
     d="M 1.7155207,86.269 C 0.63099612,86.269 0,85.546805 0,84.553478 V 24.029613 c 0,-1.084524 0.72219478,-1.717985 1.7155207,-1.717985 h 6.1423529 c 0.9957905,0 1.6267867,0.362331 1.8979179,1.626787 l 0.2711305,1.986651 c 0.0912,0.722196 0.362331,0.813394 0.722195,0.813394 0.813394,0 1.626787,-1.084524 3.433507,-2.257782 A 19.546091,19.546091 0 0 1 25.02294,21.318302 c 12.013574,-0.08873 22.494025,9.395927 22.494025,23.57855 0,14.182625 -10.480451,23.756018 -22.676423,23.756018 -4.786697,0 -8.220203,-1.626786 -10.295589,-3.15991 -1.989117,-1.355657 -2.620113,-2.260248 -3.342307,-2.260248 -0.36233,0 -0.72466,0.271132 -0.72466,0.995792 v 20.233777 c 0,1.084524 -0.7221945,1.715519 -1.7155205,1.715519 H 1.7155207 Z M 36.94778,44.985587 c 0,-8.491336 -5.417693,-14.453755 -13.278031,-14.453755 -8.04027,0 -13.369231,5.873686 -13.369231,14.453755 0,8.582532 5.328961,14.453753 13.369231,14.453753 7.860338,0 13.278031,-5.962419 13.278031,-14.453753 z m 17.071403,-0.08873 c 0,-14.273822 10.569184,-23.57855 22.494026,-23.57855 5.057827,0 8.580067,1.626787 10.840315,3.162376 1.715521,1.173258 2.617648,2.257782 3.431043,2.257782 0.271131,0 0.54226,-0.0912 0.722194,-0.902127 l 0.271132,-1.897918 c 0.182397,-1.264456 0.904592,-1.626787 1.897916,-1.626787 h 6.142353 c 1.084528,0 1.717988,0.722195 1.717988,1.717985 v 41.91441 c 0,1.084526 -0.72466,1.71552 -1.717988,1.71552 h -6.142353 c -0.993324,0 -1.626787,-0.359863 -1.897916,-1.626786 L 91.506761,64.13484 c -0.08873,-0.810927 -0.359866,-0.902127 -0.722194,-0.902127 -0.813395,0 -1.626787,1.084525 -3.431043,2.260248 a 19.457357,19.457357 0 0 1 -10.751582,3.15991 c -12.102307,0 -22.582759,-9.664593 -22.582759,-23.756018 z m 37.218912,0.08873 c 0,-8.580069 -5.331424,-14.453755 -13.371695,-14.453755 -7.766675,0 -13.278033,5.964884 -13.278033,14.453755 0,8.491334 5.420158,14.453753 13.278033,14.453753 7.949072,0 13.371695,-5.871221 13.371695,-14.453753 z m 22.402835,22.765157 c -1.08453,0 -1.718,-0.722195 -1.718,-1.715522 V 24.029613 c 0,-1.084524 0.7222,-1.717985 1.718,-1.717985 h 6.23108 c 0.99332,0 1.62678,0.362331 1.89791,1.626787 l 0.45107,3.162375 c 0.0912,0.813393 0.36233,1.084525 0.8134,1.084525 0.45105,0 0.81338,-0.271132 1.26445,-0.995791 2.62011,-3.793372 6.50468,-5.417693 10.29806,-5.417693 1.26445,0 2.16905,0.08873 2.98243,0.271131 0.99333,0.179932 1.4444,0.542262 1.4444,1.715521 v 6.051154 c 0,1.175723 -0.45107,1.535588 -1.4444,1.535588 h -3.16237 c -7.40681,0 -12.01357,4.155701 -12.01357,14.542488 v 20.05631 c 0,1.084526 -0.72466,1.71552 -1.71798,1.71552 h -7.04448 z M 151.94189,52.303662 V 32.249816 c 0,-0.542261 -0.36232,-0.993325 -0.99332,-0.993325 h -4.69796 c -1.08453,0 -1.71552,-0.722195 -1.71552,-1.717986 v -5.60009 c 0,-1.084524 0.72219,-1.715521 1.71552,-1.715521 h 4.69796 c 0.54226,0 0.99332,-0.362329 0.99332,-0.993326 V 10.20439 c 0,-1.0845242 0.7222,-1.7155203 1.71552,-1.7155203 h 7.13568 c 1.08453,0 1.71799,0.7221946 1.71799,1.7155203 v 11.022713 c 0,0.542263 0.36233,0.993326 0.99332,0.993326 h 8.22021 c 1.08452,0 1.71552,0.722195 1.71552,1.715521 v 5.600091 c 0,1.084524 -0.72219,1.717985 -1.71552,1.717985 h -8.22021 c -0.54226,0 -0.99332,0.359866 -0.99332,0.993326 v 19.240451 c 0,6.233552 2.34898,7.498009 6.32228,7.498009 2.52892,0 3.61344,-0.451064 4.69797,-0.451064 0.90459,0 1.26445,0.359866 1.26445,1.355657 v 6.142352 c 0,1.264458 -0.27112,1.626786 -1.62679,1.986653 -1.98665,0.359863 -5.32895,0.542262 -7.22441,0.542262 -4.60923,0 -14.00269,-1.084526 -14.00269,-16.260474 z m 32.06496,15.447082 c -1.08453,0 -1.71553,-0.722195 -1.71553,-1.715522 V 24.027149 c 0,-1.084525 0.7222,-1.717986 1.71553,-1.717986 h 6.14235 c 0.99579,0 1.62678,0.362331 1.89792,1.626787 l 0.27113,1.986652 c 0.0912,0.722195 0.36233,0.813393 0.7222,0.813393 0.81339,0 1.62678,-1.084524 3.4335,-2.257782 a 19.454892,19.454892 0 0 1 10.74912,-3.162376 c 9.93819,0 17.16507,6.775814 17.16507,18.971787 v 25.653935 c 0,1.084525 -0.72466,1.71552 -1.71799,1.71552 h -7.13568 c -1.08452,0 -1.71552,-0.722195 -1.71552,-1.71552 V 43.718665 c 0,-9.484661 -3.43351,-13.549163 -9.66706,-13.549163 -6.50468,0 -11.11144,4.877895 -11.11144,12.102308 v 23.669749 c 0,1.084525 -0.7222,1.71552 -1.71552,1.71552 h -7.31808 v 0.0912 z m 48.42402,-22.853892 c 0,-14.36502 8.9424,-23.57855 22.49157,-23.57855 13.28049,0 22.04295,8.853665 22.04295,22.134161 0,0.359865 0,1.895453 -0.17993,3.339842 -0.1824,1.175723 -0.72465,1.717987 -1.71798,1.717987 h -31.1653 c -0.54226,0 -0.99333,0.359864 -0.90212,1.173258 0,3.162375 2.52891,10.026921 12.64703,10.026921 4.6955,0 7.58674,-1.264456 9.75579,-4.338097 0.54227,-0.902127 1.17327,-1.173259 2.16659,-1.173259 h 6.95574 c 1.26445,0 1.5356,0.813393 1.5356,1.355657 0,0.722195 -0.45108,2.07785 -1.5356,3.884568 -3.1599,5.32896 -10.29805,9.21353 -18.69819,9.21353 -14.54249,0 -23.39615,-9.575858 -23.39615,-23.756018 z m 33.15195,-4.697963 c 0.72218,0 0.90459,-0.362329 0.90459,-1.355656 0,-5.057828 -4.42683,-8.851199 -11.38259,-8.851199 -9.57585,0 -12.01603,6.955746 -12.01603,9.302262 0,0.904593 0.45352,0.995792 0.90459,0.995792 h 21.58944 z m 21.76935,27.551855 c -1.08452,0 -1.71551,-0.722195 -1.71551,-1.715522 V 24.029613 c 0,-1.084524 0.72219,-1.717985 1.71551,-1.717985 h 6.23356 c 0.99332,0 1.62679,0.362331 1.89792,1.626787 l 0.45106,3.162375 c 0.0887,0.813393 0.35987,1.084525 0.81339,1.084525 0.45108,0 0.81093,-0.271132 1.26446,-0.995791 2.62012,-3.793372 6.50222,-5.417693 10.29805,-5.417693 1.26446,0 2.16659,0.08873 2.97999,0.271131 0.99332,0.179932 1.44685,0.542262 1.44685,1.715521 v 6.051154 c 0,1.175723 -0.45353,1.535588 -1.44685,1.535588 h -3.16238 c -7.40681,0 -12.01357,4.155701 -12.01357,14.542488 v 20.05631 c 0,1.084526 -0.7222,1.71552 -1.71553,1.71552 h -7.04695 z m 31.80123,-4.2469 c -2.44018,-2.257784 -3.79584,-5.871222 -3.79584,-8.129005 0,-1.535589 0.36233,-2.169049 1.62679,-2.169049 h 7.04694 c 1.08206,0 1.62432,0.362329 1.98665,1.626787 0.99333,4.338098 4.51557,5.420158 9.21353,5.420158 5.24023,0 7.86034,-2.07785 7.86034,-5.32896 0,-2.528915 -1.08451,-3.88457 -6.23354,-5.240225 l -7.49801,-1.986652 c -8.94241,-2.348982 -12.55584,-7.135679 -12.55584,-12.918167 0,-8.582532 8.04026,-13.640361 17.79606,-13.640361 6.41349,0 11.10898,1.897918 14.36256,4.877895 2.43772,2.348982 4.15569,5.871222 4.15569,7.857874 0,1.266923 -0.36232,1.717986 -1.71797,1.717986 H 344.445 c -1.08205,0 -1.62432,-0.451063 -1.98665,-1.355656 -0.99333,-3.342307 -3.61344,-4.877896 -8.04027,-4.877896 -4.60676,0 -7.04448,1.986652 -7.04448,4.515566 0,2.260248 1.35319,3.795836 5.60009,4.969094 l 9.03361,2.528915 c 8.12899,2.260247 11.83363,6.507147 11.83363,13.009365 0,8.851199 -7.67795,14.182623 -18.78939,14.182623 -7.04695,0.08873 -12.55584,-1.80672 -15.89814,-5.060292 z m 65.39683,4.2469 c -1.08453,0 -1.71799,-0.722195 -1.71799,-1.715522 V 2.8912439 c 0,-1.0845246 0.72466,-1.7179855 1.71799,-1.7179855 h 7.13568 c 1.08452,0 1.71552,0.7246596 1.71552,1.7179855 V 65.941559 c 0,1.084525 -0.7222,1.717984 -1.71552,1.717984 h -7.13568 z m 20.86478,-1.897919 V 24.032078 c 0,-1.084524 0.72465,-1.717985 1.71797,-1.717985 h 7.13568 c 1.08453,0 1.71553,0.72466 1.71553,1.717985 v 42.636605 c 0,5.96242 3.43351,8.582534 7.498,8.582534 4.06698,0 7.49802,-2.620114 7.49802,-8.582534 V 32.338551 c 0,-0.542263 -0.35988,-0.993326 -0.99333,-0.993326 h -5.32896 c -1.08453,0 -1.71798,-0.722195 -1.71798,-1.715521 v -5.600091 c 0,-1.084524 0.72465,-1.717985 1.71798,-1.717985 h 5.32896 c 0.54226,0 0.99333,-0.359864 0.99333,-0.993326 V 16.802737 C 431.07141,2.1690491 441.64059,0 447.78295,0 c 4.33563,0 7.76913,1.264457 10.8403,3.6134387 0.45108,0.3623297 0.81341,0.8133935 0.81341,1.264457 0,0.3623298 -0.1824,0.8133934 -0.45353,1.1732585 l -3.34231,4.8803598 c -0.35987,0.451064 -0.81093,0.722195 -1.26446,0.722195 -0.27114,0 -0.7222,-0.0912 -1.26446,-0.451063 a 9.2184589,9.2184589 0 0 0 -4.96663,-1.5380531 c -1.98911,0 -6.32475,0.3623291 -6.32475,7.0494101 v 4.695498 c 0,0.542263 0.36232,0.993325 0.99333,0.993325 h 9.21353 c 1.08452,0 1.71797,0.722196 1.71797,1.715521 v 5.602557 c 0,1.084524 -0.72218,1.71552 -1.71797,1.71552 h -9.21353 c -0.54227,0 -0.99333,0.359864 -0.99333,0.993326 v 33.605472 c 0,12.555838 -7.49801,18.96932 -18.15593,18.96932 -10.48045,-0.179932 -18.24958,-6.59588 -18.24958,-19.151717 z m 50.04834,-20.955973 c 0,-14.36502 8.94239,-23.57855 22.49403,-23.57855 13.27802,0 22.04049,8.853665 22.04049,22.134161 0,0.359865 0,1.895453 -0.17993,3.339842 -0.17994,1.175723 -0.72219,1.717987 -1.71552,1.717987 h -31.07656 c -0.54226,0 -0.99332,0.359864 -0.90212,1.173258 0,3.162375 2.52891,10.026921 12.64703,10.026921 4.69549,0 7.58674,-1.264456 9.75579,-4.338097 0.54225,-0.902127 1.17326,-1.173259 2.16658,-1.173259 h 6.95575 c 1.26446,0 1.53559,0.813393 1.53559,1.355657 0,0.722195 -0.45107,2.07785 -1.53559,3.884568 -3.15991,5.32896 -10.29805,9.21353 -18.69819,9.21353 -14.54496,0 -23.48735,-9.575858 -23.48735,-23.756018 z m 33.24314,-4.697963 c 0.72219,0 0.9046,-0.362329 0.9046,-1.355656 0,-5.057828 -4.42683,-8.851199 -11.38258,-8.851199 -9.57586,0 -12.01604,6.955746 -12.01604,9.302262 0,0.904593 0.45352,0.995792 0.90459,0.995792 h 21.58943 z"
     fill="#004855"
     class="letter"
     id="path2"
     style="stroke-width:2.46483;fill:#ffffff;fill-opacity:1;stroke:#000000;stroke-opacity:1.0" />
  <path
     d="m 404.69527,6.3247501 c 0,-3.6134386 2.43771,-6.14481762 6.05116,-6.14481762 3.52223,0 6.05116,2.53137902 6.05116,6.14481762 0,3.3423076 -2.52893,5.9599559 -6.05116,5.9599559 -3.61345,0 -6.05116,-2.6176483 -6.05116,-5.9599559 z"
     fill="#86c883"
     id="path4"
     style="stroke-width:2.46483;fill:#ffffff;fill-opacity:1;stroke:#000000;stroke-opacity:1.0" />
</svg>
