<?xml version="1.0" encoding="UTF-8" standalone="no"?>
<!-- Created with Inkscape (http://www.inkscape.org/) -->

<svg
   width="62mm"
   height="8mm"
   viewBox="0 0 219.68501 28.346457"
   id="svg10083"
   version="1.1"
   inkscape:version="1.3.1 (91b66b0783, 2023-11-16)"
   sodipodi:docname="Transpower-logo.svg"
   xmlns:inkscape="http://www.inkscape.org/namespaces/inkscape"
   xmlns:sodipodi="http://sodipodi.sourceforge.net/DTD/sodipodi-0.dtd"
   xmlns="http://www.w3.org/2000/svg"
   xmlns:svg="http://www.w3.org/2000/svg"
   xmlns:rdf="http://www.w3.org/1999/02/22-rdf-syntax-ns#"
   xmlns:cc="http://creativecommons.org/ns#"
   xmlns:dc="http://purl.org/dc/elements/1.1/">
  <defs
     id="defs10085">
    <clipPath
       id="clip305">
      <path
         inkscape:connector-curvature="0"
         d="m 540,410 54.55469,0 0,22 L 540,432 Z m 0,0"
         id="path7777" />
    </clipPath>
    <clipPath
       id="clip303">
      <path
         inkscape:connector-curvature="0"
         d="m 541.36328,415 53.19141,0 0,5 -53.19141,0 z m 0,0"
         id="path7771" />
    </clipPath>
    <clipPath
       id="clip302">
      <path
         inkscape:connector-curvature="0"
         d="m 541.36328,423 53.19141,0 0,4 -53.19141,0 z m 0,0"
         id="path7768" />
    </clipPath>
    <clipPath
       id="clip304">
      <path
         inkscape:connector-curvature="0"
         d="m 541.36328,420 53.19141,0 0,2 -53.19141,0 z m 0,0"
         id="path7774" />
    </clipPath>
    <clipPath
       id="clip301">
      <path
         inkscape:connector-curvature="0"
         d="m 541,410 53.55469,0 0,22 L 541,432 Z m 0,0"
         id="path7765" />
    </clipPath>
    <clipPath
       id="clip302-2">
      <path
         inkscape:connector-curvature="0"
         d="m 541.36328,423 53.19141,0 0,4 -53.19141,0 z m 0,0"
         id="path7768-7" />
    </clipPath>
    <clipPath
       id="clip303-6">
      <path
         inkscape:connector-curvature="0"
         d="m 541.36328,415 53.19141,0 0,5 -53.19141,0 z m 0,0"
         id="path7771-7" />
    </clipPath>
    <clipPath
       id="clip304-8">
      <path
         inkscape:connector-curvature="0"
         d="m 541.36328,420 53.19141,0 0,2 -53.19141,0 z m 0,0"
         id="path7774-8" />
    </clipPath>
  </defs>
  <sodipodi:namedview
     id="base"
     pagecolor="#ffffff"
     bordercolor="#666666"
     borderopacity="1.0"
     inkscape:pageopacity="0.0"
     inkscape:pageshadow="2"
     inkscape:zoom="3.4861481"
     inkscape:cx="73.433484"
     inkscape:cy="6.4541148"
     inkscape:document-units="px"
     inkscape:current-layer="layer1"
     showgrid="false"
     height="51mm"
     units="mm"
     inkscape:window-width="2256"
     inkscape:window-height="1398"
     inkscape:window-x="-11"
     inkscape:window-y="-11"
     inkscape:window-maximized="1"
     inkscape:showpageshadow="2"
     inkscape:pagecheckerboard="0"
     inkscape:deskcolor="#d1d1d1" />
  <metadata
     id="metadata10088">
    <rdf:RDF>
      <cc:Work
         rdf:about="">
        <dc:format>image/svg+xml</dc:format>
        <dc:type
           rdf:resource="http://purl.org/dc/dcmitype/StillImage" />
        <dc:title />
      </cc:Work>
    </rdf:RDF>
  </metadata>
  <g
     inkscape:label="Layer 1"
     inkscape:groupmode="layer"
     id="layer1"
     transform="translate(0,-1024.0158)">
    <g
       id="g10797"
       transform="translate(641.32397,761.75275)"
       style="stroke:#000000;stroke-opacity:1;fill:#ffffff;fill-opacity:1">
      <g
         clip-path="url(#clip301)"
         id="g8990"
         style="clip-rule:nonzero;stroke:#000000;stroke-opacity:1;fill:#ffffff;fill-opacity:1"
         transform="matrix(1.25,0,0,1.2499999,-1166.0249,-249.86739)">
        <path
           style="fill:#ffffff;fill-opacity:1;fill-rule:nonzero;stroke:#000000;stroke-opacity:1"
           d="m 541.36328,431.17969 53.19141,0 0,-20.27344 -53.19141,0 z m 0,0"
           id="path8992"
           inkscape:connector-curvature="0" />
      </g>
      <g
         clip-path="url(#clip302-2)"
         id="g8994"
         style="clip-rule:nonzero;stroke:#000000;stroke-opacity:1;fill:#ffffff;fill-opacity:1"
         transform="matrix(1.25,0,0,1.2499999,-1166.0249,-249.86739)">
        <path
           style="fill:#ffffff;fill-opacity:1;fill-rule:nonzero;stroke:#000000;stroke-opacity:1"
           d="m 541.35937,425.37891 0,-0.48047 c 8.09766,-1.03516 17.15235,-1.77344 26.58985,-1.77344 9.53125,0 18.5,0.69922 26.65625,1.75391 0.0469,0.008 17.67578,1.1914 17.72265,1.19921 l 0,0.48047 c -0.0625,-0.004 -17.70312,-1.1875 -17.76171,-1.1875 -8.35547,-0.42578 -17.25391,-0.76953 -26.61719,-0.76953 -9.33203,0 -18.27735,0.35547 -26.58985,0.77735"
           id="path8996"
           inkscape:connector-curvature="0" />
      </g>
      <g
         clip-path="url(#clip303-6)"
         id="g8998"
         style="clip-rule:nonzero;stroke:#000000;stroke-opacity:1;fill:#ffffff;fill-opacity:1"
         transform="matrix(1.25,0,0,1.2499999,-1166.0249,-249.86739)">
        <path
           style="fill:#ffffff;fill-opacity:1;fill-rule:nonzero;stroke:#000000;stroke-opacity:1"
           d="m 541.35937,417.46094 0,-0.48047 c 8.40625,0.42578 17.16016,0.79687 26.58985,0.79687 9.22265,0 18.26953,-0.36718 26.5039,-0.78125 0.0977,-0.008 17.81641,-1.1914 17.91407,-1.19531 l 0,0.48047 c -0.0742,0.008 -17.76563,1.19531 -17.83985,1.20703 -8.04297,1.01953 -17.22656,1.76563 -26.57812,1.76563 -9.58594,0 -18.39453,-0.73047 -26.58985,-1.79297"
           id="path9000"
           inkscape:connector-curvature="0" />
      </g>
      <g
         clip-path="url(#clip304-8)"
         id="g9002"
         style="clip-rule:nonzero;stroke:#000000;stroke-opacity:1;fill:#ffffff;fill-opacity:1"
         transform="matrix(1.25,0,0,1.2499999,-1166.0249,-249.86739)">
        <path
           style="fill:#ffffff;fill-opacity:1;fill-rule:nonzero;stroke:#000000;stroke-opacity:1"
           d="m 541.35937,421.4375 0,-0.48828 c 8.1875,-0.31641 17.14844,-0.5 26.58985,-0.5 9.39453,0 18.4375,0.18359 26.57812,0.49609 0.0742,0 17.80469,0.004 17.87891,0.008 l 0,0.48047 c -0.0586,0.004 -17.77734,0.004 -17.83594,0.008 -8.15234,0.3125 -17.21484,0.47656 -26.62109,0.47656 -9.47266,0 -18.39844,-0.16406 -26.58985,-0.48047"
           id="path9004"
           inkscape:connector-curvature="0" />
      </g>
      <path
         style="fill:#ffffff;fill-opacity:1;fill-rule:nonzero;stroke:#000000;stroke-opacity:1"
         d="m -630.92729,271.53882 -9.2041,0 0,1.87011 3.42774,0 0,8.33496 2.35351,0 0,-8.33496 3.42285,0 z m 0,0"
         id="path9006"
         inkscape:connector-curvature="0" />
      <path
         style="fill:#ffffff;fill-opacity:1;fill-rule:nonzero;stroke:#000000;stroke-opacity:1"
         d="m -624.83841,271.53882 0,10.20507 2.3584,0 0,-4.1455 0.67871,0 c 1.27441,0 1.65039,1.958 2.66113,4.1455 l 2.58788,0 c -1.32812,-2.99316 -1.62108,-4.24805 -2.58788,-4.77539 1.07909,-0.53711 1.6211,-1.37207 1.6211,-2.49511 0,-1.52832 -1.15235,-2.93457 -3.09083,-2.93457 z m 2.3584,1.87011 1.1914,0 c 0.88867,0 1.34277,0.39062 1.34277,1.15235 0,0.86914 -0.63476,1.16699 -1.28906,1.16699 l -1.24511,0 z m 0,0"
         id="path9008"
         inkscape:connector-curvature="0" />
      <path
         style="fill:#ffffff;fill-opacity:1;fill-rule:nonzero;stroke:#000000;stroke-opacity:1"
         d="m -605.2681,271.53882 -2.7295,0 -3.81348,10.20507 2.49513,0 0.708,-2.02149 4.22364,0 0.77636,2.02149 2.53906,0 z m 0.19042,6.40624 -2.90527,0 1.38184,-3.96972 z m 0,0"
         id="path9010"
         inkscape:connector-curvature="0" />
      <path
         style="fill:#ffffff;fill-opacity:1;fill-rule:nonzero;stroke:#000000;stroke-opacity:1"
         d="m -586.25931,271.53882 -2.3584,0 0,6.24023 -5.04395,-6.24023 -2.16308,0 0,10.20507 2.35839,0 0,-6.53809 5.22461,6.53809 1.98243,0 z m 0,0"
         id="path9012"
         inkscape:connector-curvature="0" />
      <path
         style="fill:#ffffff;fill-opacity:1;fill-rule:nonzero;stroke:#000000;stroke-opacity:1"
         d="m -573.61771,272.19799 c -1.1914,-0.55175 -2.14844,-0.79101 -3.20313,-0.79101 -2.1875,0 -3.60351,1.16699 -3.60351,2.92969 0,3.66698 4.80956,3.05176 4.80956,4.72656 0,0.60058 -0.48339,0.94726 -1.38671,0.94726 -1.04004,0 -1.87011,-0.34668 -3.22754,-1.31835 l 0,2.19726 c 0.94238,0.52246 1.75781,0.99121 3.4082,0.99121 2.10938,0 3.63281,-1.1377 3.63281,-3.10058 0,-3.55958 -4.80957,-3.125 -4.80957,-4.66798 0,-0.50781 0.542,-0.83496 1.38672,-0.83496 0.80078,0 1.62109,0.25391 2.99317,0.91309 z m 0,0"
         id="path9014"
         inkscape:connector-curvature="0" />
      <path
         style="fill:#ffffff;fill-opacity:1;fill-rule:nonzero;stroke:#000000;stroke-opacity:1"
         d="m -566.94779,271.53882 0,10.20507 2.35352,0 0,-4.10156 1.87011,0 c 2.17773,0 3.12012,-1.6455 3.12012,-3.08105 0,-1.3916 -0.97168,-3.02246 -3.13476,-3.02246 z m 2.35352,1.87011 0.83007,0 c 1.27441,0 1.7334,0.31739 1.7334,1.18165 0,0.76171 -0.38574,1.18164 -1.46972,1.18164 l -1.09375,0 z m 0,0"
         id="path9016"
         inkscape:connector-curvature="0" />
      <path
         style="fill:#ffffff;fill-opacity:1;fill-rule:nonzero;stroke:#000000;stroke-opacity:1"
         d="m -544.84818,276.64135 c 0,-2.45117 -1.84571,-5.23437 -5.40527,-5.23437 -3.56446,0 -5.41993,2.76367 -5.41993,5.23437 0,2.60254 1.95313,5.23438 5.41993,5.23438 3.39355,0 5.40527,-2.61719 5.40527,-5.23438 m -2.42676,0 c 0,1.87011 -1.19141,3.11035 -2.97851,3.11035 -1.80176,0 -2.99316,-1.24024 -2.99316,-3.11035 0,-1.87011 1.1914,-3.11035 2.99316,-3.11035 1.7871,0 2.97851,1.24024 2.97851,3.11035"
         id="path9018"
         inkscape:connector-curvature="0" />
      <path
         style="fill:#ffffff;fill-opacity:1;fill-rule:nonzero;stroke:#000000;stroke-opacity:1"
         d="m -533.87162,275.22045 2.93457,6.65528 1.01562,0 4.14063,-10.33691 -2.49511,0 -2.2168,5.63964 -2.42188,-5.63964 -1.89941,0 -2.42676,5.63964 -2.23144,-5.63964 -2.49512,0 4.16016,10.33691 1.01073,0 z m 0,0"
         id="path9020"
         inkscape:connector-curvature="0" />
      <path
         style="fill:#ffffff;fill-opacity:1;fill-rule:nonzero;stroke:#000000;stroke-opacity:1"
         d="m -513.97416,279.87378 -4.61426,0 0,-2.45607 4.31153,0 0,-1.87011 -4.31153,0 0,-2.13867 4.52149,0 0,-1.87011 -6.875,0 0,10.20507 6.96777,0 z m 0,0"
         id="path9022"
         inkscape:connector-curvature="0" />
      <path
         style="fill:#ffffff;fill-opacity:1;fill-rule:nonzero;stroke:#000000;stroke-opacity:1"
         d="m -507.9976,271.53882 0,10.20507 2.35352,0 0,-4.1455 0.67871,0 c 1.27442,0 1.65039,1.958 2.66113,4.1455 l 2.59278,0 c -1.32813,-2.99316 -1.62109,-4.24805 -2.59278,-4.77539 1.08399,-0.53711 1.6211,-1.37207 1.6211,-2.49511 0,-1.52832 -1.14746,-2.93457 -3.09082,-2.93457 z m 2.35352,1.87011 1.1914,0 c 0.88868,0 1.34767,0.39062 1.34767,1.15235 0,0.86914 -0.63965,1.16699 -1.28907,1.16699 l -1.25,0 z m 0,0"
         id="path9024"
         inkscape:connector-curvature="0" />
    </g>
  </g>
</svg>
